<?xml version="1.0" encoding="utf-8" standalone="no"?>
<!DOCTYPE svg PUBLIC "-//W3C//DTD SVG 1.1//EN"
  "http://www.w3.org/Graphics/SVG/1.1/DTD/svg11.dtd">
<!-- Created with matplotlib (https://matplotlib.org/) -->
<svg height="792pt" version="1.1" viewBox="0 0 792 792" width="792pt" xmlns="http://www.w3.org/2000/svg" xmlns:xlink="http://www.w3.org/1999/xlink">
 <defs>
  <style type="text/css">
*{stroke-linecap:butt;stroke-linejoin:round;}
  </style>
 </defs>
 <g id="figure_1">
  <g id="patch_1">
   <path d="M 0 792 
L 792 792 
L 792 0 
L 0 0 
z
" style="fill:#ffffff;"/>
  </g>
  <g id="axes_1">
   <g id="LineCollection_1">
    <path clip-path="url(#pc5e61a54bf)" d="M 285.351372 756 
L 260.230308 738.18826 
" style="fill:none;stroke:#000000;"/>
    <path clip-path="url(#pc5e61a54bf)" d="M 69.919336 485.260079 
L 36 495.097753 
" style="fill:none;stroke:#000000;"/>
    <path clip-path="url(#pc5e61a54bf)" d="M 657.898491 573.420424 
L 683.141035 556.837866 
" style="fill:none;stroke:#000000;"/>
    <path clip-path="url(#pc5e61a54bf)" d="M 505.875493 36 
L 481.11154 54.016284 
" style="fill:none;stroke:#000000;"/>
    <path clip-path="url(#pc5e61a54bf)" d="M 756 407.181174 
L 735.387494 384.594797 
" style="fill:none;stroke:#000000;"/>
    <path clip-path="url(#pc5e61a54bf)" d="M 58.489916 255.580225 
L 43.854836 228.318456 
" style="fill:none;stroke:#000000;"/>
    <path clip-path="url(#pc5e61a54bf)" d="M 637.249542 256.271021 
L 660.428913 229.777681 
" style="fill:none;stroke:#000000;"/>
    <path clip-path="url(#pc5e61a54bf)" d="M 258.395754 104.211752 
L 244.855899 72.884711 
" style="fill:none;stroke:#000000;"/>
    <path clip-path="url(#pc5e61a54bf)" d="M 568.485307 743.922944 
L 538.594117 738.961796 
" style="fill:none;stroke:#000000;"/>
    <path clip-path="url(#pc5e61a54bf)" d="M 285.465894 581.513586 
L 263.351846 560.374271 
" style="fill:none;stroke:#000000;"/>
   </g>
   <g id="PathCollection_1">
    <defs>
     <path d="M 0 11.18034 
C 2.965061 11.18034 5.80908 10.002309 7.905694 7.905694 
C 10.002309 5.80908 11.18034 2.965061 11.18034 0 
C 11.18034 -2.965061 10.002309 -5.80908 7.905694 -7.905694 
C 5.80908 -10.002309 2.965061 -11.18034 0 -11.18034 
C -2.965061 -11.18034 -5.80908 -10.002309 -7.905694 -7.905694 
C -10.002309 -5.80908 -11.18034 -2.965061 -11.18034 0 
C -11.18034 2.965061 -10.002309 5.80908 -7.905694 7.905694 
C -5.80908 10.002309 -2.965061 11.18034 0 11.18034 
z
" id="C0_0_7bd5c4bdd4"/>
    </defs>
    <g clip-path="url(#pc5e61a54bf)">
     <use style="fill:#ff0000;stroke:#ff0000;" x="285.351372" xlink:href="#C0_0_7bd5c4bdd4" y="756"/>
    </g>
    <g clip-path="url(#pc5e61a54bf)">
     <use style="fill:#0000ff;stroke:#0000ff;" x="260.230308" xlink:href="#C0_0_7bd5c4bdd4" y="738.18826"/>
    </g>
    <g clip-path="url(#pc5e61a54bf)">
     <use style="fill:#ff0000;stroke:#ff0000;" x="69.919336" xlink:href="#C0_0_7bd5c4bdd4" y="485.260079"/>
    </g>
    <g clip-path="url(#pc5e61a54bf)">
     <use style="fill:#0000ff;stroke:#0000ff;" x="36" xlink:href="#C0_0_7bd5c4bdd4" y="495.097753"/>
    </g>
    <g clip-path="url(#pc5e61a54bf)">
     <use style="fill:#ff0000;stroke:#ff0000;" x="657.898491" xlink:href="#C0_0_7bd5c4bdd4" y="573.420424"/>
    </g>
    <g clip-path="url(#pc5e61a54bf)">
     <use style="fill:#0000ff;stroke:#0000ff;" x="683.141035" xlink:href="#C0_0_7bd5c4bdd4" y="556.837866"/>
    </g>
    <g clip-path="url(#pc5e61a54bf)">
     <use style="fill:#ff0000;stroke:#ff0000;" x="505.875493" xlink:href="#C0_0_7bd5c4bdd4" y="36"/>
    </g>
    <g clip-path="url(#pc5e61a54bf)">
     <use style="fill:#0000ff;stroke:#0000ff;" x="481.11154" xlink:href="#C0_0_7bd5c4bdd4" y="54.016284"/>
    </g>
    <g clip-path="url(#pc5e61a54bf)">
     <use style="fill:#ff0000;stroke:#ff0000;" x="756" xlink:href="#C0_0_7bd5c4bdd4" y="407.181174"/>
    </g>
    <g clip-path="url(#pc5e61a54bf)">
     <use style="fill:#0000ff;stroke:#0000ff;" x="735.387494" xlink:href="#C0_0_7bd5c4bdd4" y="384.594797"/>
    </g>
    <g clip-path="url(#pc5e61a54bf)">
     <use style="fill:#ff0000;stroke:#ff0000;" x="58.489916" xlink:href="#C0_0_7bd5c4bdd4" y="255.580225"/>
    </g>
    <g clip-path="url(#pc5e61a54bf)">
     <use style="fill:#0000ff;stroke:#0000ff;" x="43.854836" xlink:href="#C0_0_7bd5c4bdd4" y="228.318456"/>
    </g>
    <g clip-path="url(#pc5e61a54bf)">
     <use style="fill:#ff0000;stroke:#ff0000;" x="637.249542" xlink:href="#C0_0_7bd5c4bdd4" y="256.271021"/>
    </g>
    <g clip-path="url(#pc5e61a54bf)">
     <use style="fill:#0000ff;stroke:#0000ff;" x="660.428913" xlink:href="#C0_0_7bd5c4bdd4" y="229.777681"/>
    </g>
    <g clip-path="url(#pc5e61a54bf)">
     <use style="fill:#ff0000;stroke:#ff0000;" x="258.395754" xlink:href="#C0_0_7bd5c4bdd4" y="104.211752"/>
    </g>
    <g clip-path="url(#pc5e61a54bf)">
     <use style="fill:#0000ff;stroke:#0000ff;" x="244.855899" xlink:href="#C0_0_7bd5c4bdd4" y="72.884711"/>
    </g>
    <g clip-path="url(#pc5e61a54bf)">
     <use style="fill:#ff0000;stroke:#ff0000;" x="568.485307" xlink:href="#C0_0_7bd5c4bdd4" y="743.922944"/>
    </g>
    <g clip-path="url(#pc5e61a54bf)">
     <use style="fill:#0000ff;stroke:#0000ff;" x="538.594117" xlink:href="#C0_0_7bd5c4bdd4" y="738.961796"/>
    </g>
    <g clip-path="url(#pc5e61a54bf)">
     <use style="fill:#ff0000;stroke:#ff0000;" x="285.465894" xlink:href="#C0_0_7bd5c4bdd4" y="581.513586"/>
    </g>
    <g clip-path="url(#pc5e61a54bf)">
     <use style="fill:#0000ff;stroke:#0000ff;" x="263.351846" xlink:href="#C0_0_7bd5c4bdd4" y="560.374271"/>
    </g>
   </g>
   <g id="text_1">
    <g clip-path="url(#pc5e61a54bf)">
     <!-- 1313809089726754816 -->
     <defs>
      <path d="M 12.40625 8.296875 
L 28.515625 8.296875 
L 28.515625 63.921875 
L 10.984375 60.40625 
L 10.984375 69.390625 
L 28.421875 72.90625 
L 38.28125 72.90625 
L 38.28125 8.296875 
L 54.390625 8.296875 
L 54.390625 0 
L 12.40625 0 
z
" id="DejaVuSans-49"/>
      <path d="M 40.578125 39.3125 
Q 47.65625 37.796875 51.625 33 
Q 55.609375 28.21875 55.609375 21.1875 
Q 55.609375 10.40625 48.1875 4.484375 
Q 40.765625 -1.421875 27.09375 -1.421875 
Q 22.515625 -1.421875 17.65625 -0.515625 
Q 12.796875 0.390625 7.625 2.203125 
L 7.625 11.71875 
Q 11.71875 9.328125 16.59375 8.109375 
Q 21.484375 6.890625 26.8125 6.890625 
Q 36.078125 6.890625 40.9375 10.546875 
Q 45.796875 14.203125 45.796875 21.1875 
Q 45.796875 27.640625 41.28125 31.265625 
Q 36.765625 34.90625 28.71875 34.90625 
L 20.21875 34.90625 
L 20.21875 43.015625 
L 29.109375 43.015625 
Q 36.375 43.015625 40.234375 45.921875 
Q 44.09375 48.828125 44.09375 54.296875 
Q 44.09375 59.90625 40.109375 62.90625 
Q 36.140625 65.921875 28.71875 65.921875 
Q 24.65625 65.921875 20.015625 65.03125 
Q 15.375 64.15625 9.8125 62.3125 
L 9.8125 71.09375 
Q 15.4375 72.65625 20.34375 73.4375 
Q 25.25 74.21875 29.59375 74.21875 
Q 40.828125 74.21875 47.359375 69.109375 
Q 53.90625 64.015625 53.90625 55.328125 
Q 53.90625 49.265625 50.4375 45.09375 
Q 46.96875 40.921875 40.578125 39.3125 
z
" id="DejaVuSans-51"/>
      <path d="M 31.78125 34.625 
Q 24.75 34.625 20.71875 30.859375 
Q 16.703125 27.09375 16.703125 20.515625 
Q 16.703125 13.921875 20.71875 10.15625 
Q 24.75 6.390625 31.78125 6.390625 
Q 38.8125 6.390625 42.859375 10.171875 
Q 46.921875 13.96875 46.921875 20.515625 
Q 46.921875 27.09375 42.890625 30.859375 
Q 38.875 34.625 31.78125 34.625 
z
M 21.921875 38.8125 
Q 15.578125 40.375 12.03125 44.71875 
Q 8.5 49.078125 8.5 55.328125 
Q 8.5 64.0625 14.71875 69.140625 
Q 20.953125 74.21875 31.78125 74.21875 
Q 42.671875 74.21875 48.875 69.140625 
Q 55.078125 64.0625 55.078125 55.328125 
Q 55.078125 49.078125 51.53125 44.71875 
Q 48 40.375 41.703125 38.8125 
Q 48.828125 37.15625 52.796875 32.3125 
Q 56.78125 27.484375 56.78125 20.515625 
Q 56.78125 9.90625 50.3125 4.234375 
Q 43.84375 -1.421875 31.78125 -1.421875 
Q 19.734375 -1.421875 13.25 4.234375 
Q 6.78125 9.90625 6.78125 20.515625 
Q 6.78125 27.484375 10.78125 32.3125 
Q 14.796875 37.15625 21.921875 38.8125 
z
M 18.3125 54.390625 
Q 18.3125 48.734375 21.84375 45.5625 
Q 25.390625 42.390625 31.78125 42.390625 
Q 38.140625 42.390625 41.71875 45.5625 
Q 45.3125 48.734375 45.3125 54.390625 
Q 45.3125 60.0625 41.71875 63.234375 
Q 38.140625 66.40625 31.78125 66.40625 
Q 25.390625 66.40625 21.84375 63.234375 
Q 18.3125 60.0625 18.3125 54.390625 
z
" id="DejaVuSans-56"/>
      <path d="M 31.78125 66.40625 
Q 24.171875 66.40625 20.328125 58.90625 
Q 16.5 51.421875 16.5 36.375 
Q 16.5 21.390625 20.328125 13.890625 
Q 24.171875 6.390625 31.78125 6.390625 
Q 39.453125 6.390625 43.28125 13.890625 
Q 47.125 21.390625 47.125 36.375 
Q 47.125 51.421875 43.28125 58.90625 
Q 39.453125 66.40625 31.78125 66.40625 
z
M 31.78125 74.21875 
Q 44.046875 74.21875 50.515625 64.515625 
Q 56.984375 54.828125 56.984375 36.375 
Q 56.984375 17.96875 50.515625 8.265625 
Q 44.046875 -1.421875 31.78125 -1.421875 
Q 19.53125 -1.421875 13.0625 8.265625 
Q 6.59375 17.96875 6.59375 36.375 
Q 6.59375 54.828125 13.0625 64.515625 
Q 19.53125 74.21875 31.78125 74.21875 
z
" id="DejaVuSans-48"/>
      <path d="M 10.984375 1.515625 
L 10.984375 10.5 
Q 14.703125 8.734375 18.5 7.8125 
Q 22.3125 6.890625 25.984375 6.890625 
Q 35.75 6.890625 40.890625 13.453125 
Q 46.046875 20.015625 46.78125 33.40625 
Q 43.953125 29.203125 39.59375 26.953125 
Q 35.25 24.703125 29.984375 24.703125 
Q 19.046875 24.703125 12.671875 31.3125 
Q 6.296875 37.9375 6.296875 49.421875 
Q 6.296875 60.640625 12.9375 67.421875 
Q 19.578125 74.21875 30.609375 74.21875 
Q 43.265625 74.21875 49.921875 64.515625 
Q 56.59375 54.828125 56.59375 36.375 
Q 56.59375 19.140625 48.40625 8.859375 
Q 40.234375 -1.421875 26.421875 -1.421875 
Q 22.703125 -1.421875 18.890625 -0.6875 
Q 15.09375 0.046875 10.984375 1.515625 
z
M 30.609375 32.421875 
Q 37.25 32.421875 41.125 36.953125 
Q 45.015625 41.5 45.015625 49.421875 
Q 45.015625 57.28125 41.125 61.84375 
Q 37.25 66.40625 30.609375 66.40625 
Q 23.96875 66.40625 20.09375 61.84375 
Q 16.21875 57.28125 16.21875 49.421875 
Q 16.21875 41.5 20.09375 36.953125 
Q 23.96875 32.421875 30.609375 32.421875 
z
" id="DejaVuSans-57"/>
      <path d="M 8.203125 72.90625 
L 55.078125 72.90625 
L 55.078125 68.703125 
L 28.609375 0 
L 18.3125 0 
L 43.21875 64.59375 
L 8.203125 64.59375 
z
" id="DejaVuSans-55"/>
      <path d="M 19.1875 8.296875 
L 53.609375 8.296875 
L 53.609375 0 
L 7.328125 0 
L 7.328125 8.296875 
Q 12.9375 14.109375 22.625 23.890625 
Q 32.328125 33.6875 34.8125 36.53125 
Q 39.546875 41.84375 41.421875 45.53125 
Q 43.3125 49.21875 43.3125 52.78125 
Q 43.3125 58.59375 39.234375 62.25 
Q 35.15625 65.921875 28.609375 65.921875 
Q 23.96875 65.921875 18.8125 64.3125 
Q 13.671875 62.703125 7.8125 59.421875 
L 7.8125 69.390625 
Q 13.765625 71.78125 18.9375 73 
Q 24.125 74.21875 28.421875 74.21875 
Q 39.75 74.21875 46.484375 68.546875 
Q 53.21875 62.890625 53.21875 53.421875 
Q 53.21875 48.921875 51.53125 44.890625 
Q 49.859375 40.875 45.40625 35.40625 
Q 44.1875 33.984375 37.640625 27.21875 
Q 31.109375 20.453125 19.1875 8.296875 
z
" id="DejaVuSans-50"/>
      <path d="M 33.015625 40.375 
Q 26.375 40.375 22.484375 35.828125 
Q 18.609375 31.296875 18.609375 23.390625 
Q 18.609375 15.53125 22.484375 10.953125 
Q 26.375 6.390625 33.015625 6.390625 
Q 39.65625 6.390625 43.53125 10.953125 
Q 47.40625 15.53125 47.40625 23.390625 
Q 47.40625 31.296875 43.53125 35.828125 
Q 39.65625 40.375 33.015625 40.375 
z
M 52.59375 71.296875 
L 52.59375 62.3125 
Q 48.875 64.0625 45.09375 64.984375 
Q 41.3125 65.921875 37.59375 65.921875 
Q 27.828125 65.921875 22.671875 59.328125 
Q 17.53125 52.734375 16.796875 39.40625 
Q 19.671875 43.65625 24.015625 45.921875 
Q 28.375 48.1875 33.59375 48.1875 
Q 44.578125 48.1875 50.953125 41.515625 
Q 57.328125 34.859375 57.328125 23.390625 
Q 57.328125 12.15625 50.6875 5.359375 
Q 44.046875 -1.421875 33.015625 -1.421875 
Q 20.359375 -1.421875 13.671875 8.265625 
Q 6.984375 17.96875 6.984375 36.375 
Q 6.984375 53.65625 15.1875 63.9375 
Q 23.390625 74.21875 37.203125 74.21875 
Q 40.921875 74.21875 44.703125 73.484375 
Q 48.484375 72.75 52.59375 71.296875 
z
" id="DejaVuSans-54"/>
      <path d="M 10.796875 72.90625 
L 49.515625 72.90625 
L 49.515625 64.59375 
L 19.828125 64.59375 
L 19.828125 46.734375 
Q 21.96875 47.46875 24.109375 47.828125 
Q 26.265625 48.1875 28.421875 48.1875 
Q 40.625 48.1875 47.75 41.5 
Q 54.890625 34.8125 54.890625 23.390625 
Q 54.890625 11.625 47.5625 5.09375 
Q 40.234375 -1.421875 26.90625 -1.421875 
Q 22.3125 -1.421875 17.546875 -0.640625 
Q 12.796875 0.140625 7.71875 1.703125 
L 7.71875 11.625 
Q 12.109375 9.234375 16.796875 8.0625 
Q 21.484375 6.890625 26.703125 6.890625 
Q 35.15625 6.890625 40.078125 11.328125 
Q 45.015625 15.765625 45.015625 23.390625 
Q 45.015625 31 40.078125 35.4375 
Q 35.15625 39.890625 26.703125 39.890625 
Q 22.75 39.890625 18.8125 39.015625 
Q 14.890625 38.140625 10.796875 36.28125 
z
" id="DejaVuSans-53"/>
      <path d="M 37.796875 64.3125 
L 12.890625 25.390625 
L 37.796875 25.390625 
z
M 35.203125 72.90625 
L 47.609375 72.90625 
L 47.609375 25.390625 
L 58.015625 25.390625 
L 58.015625 17.1875 
L 47.609375 17.1875 
L 47.609375 0 
L 37.796875 0 
L 37.796875 17.1875 
L 4.890625 17.1875 
L 4.890625 26.703125 
z
" id="DejaVuSans-52"/>
     </defs>
     <g transform="translate(273.262622 756.551875)scale(0.02 -0.02)">
      <use xlink:href="#DejaVuSans-49"/>
      <use x="63.623047" xlink:href="#DejaVuSans-51"/>
      <use x="127.246094" xlink:href="#DejaVuSans-49"/>
      <use x="190.869141" xlink:href="#DejaVuSans-51"/>
      <use x="254.492188" xlink:href="#DejaVuSans-56"/>
      <use x="318.115234" xlink:href="#DejaVuSans-48"/>
      <use x="381.738281" xlink:href="#DejaVuSans-57"/>
      <use x="445.361328" xlink:href="#DejaVuSans-48"/>
      <use x="508.984375" xlink:href="#DejaVuSans-56"/>
      <use x="572.607422" xlink:href="#DejaVuSans-57"/>
      <use x="636.230469" xlink:href="#DejaVuSans-55"/>
      <use x="699.853516" xlink:href="#DejaVuSans-50"/>
      <use x="763.476562" xlink:href="#DejaVuSans-54"/>
      <use x="827.099609" xlink:href="#DejaVuSans-55"/>
      <use x="890.722656" xlink:href="#DejaVuSans-53"/>
      <use x="954.345703" xlink:href="#DejaVuSans-52"/>
      <use x="1017.96875" xlink:href="#DejaVuSans-56"/>
      <use x="1081.591797" xlink:href="#DejaVuSans-49"/>
      <use x="1145.214844" xlink:href="#DejaVuSans-54"/>
     </g>
    </g>
   </g>
   <g id="text_2">
    <g clip-path="url(#pc5e61a54bf)">
     <!-- https://twitter.com/tedcruz/status/1313485537702019072 -->
     <defs>
      <path d="M 54.890625 33.015625 
L 54.890625 0 
L 45.90625 0 
L 45.90625 32.71875 
Q 45.90625 40.484375 42.875 44.328125 
Q 39.84375 48.1875 33.796875 48.1875 
Q 26.515625 48.1875 22.3125 43.546875 
Q 18.109375 38.921875 18.109375 30.90625 
L 18.109375 0 
L 9.078125 0 
L 9.078125 75.984375 
L 18.109375 75.984375 
L 18.109375 46.1875 
Q 21.34375 51.125 25.703125 53.5625 
Q 30.078125 56 35.796875 56 
Q 45.21875 56 50.046875 50.171875 
Q 54.890625 44.34375 54.890625 33.015625 
z
" id="DejaVuSans-104"/>
      <path d="M 18.3125 70.21875 
L 18.3125 54.6875 
L 36.8125 54.6875 
L 36.8125 47.703125 
L 18.3125 47.703125 
L 18.3125 18.015625 
Q 18.3125 11.328125 20.140625 9.421875 
Q 21.96875 7.515625 27.59375 7.515625 
L 36.8125 7.515625 
L 36.8125 0 
L 27.59375 0 
Q 17.1875 0 13.234375 3.875 
Q 9.28125 7.765625 9.28125 18.015625 
L 9.28125 47.703125 
L 2.6875 47.703125 
L 2.6875 54.6875 
L 9.28125 54.6875 
L 9.28125 70.21875 
z
" id="DejaVuSans-116"/>
      <path d="M 18.109375 8.203125 
L 18.109375 -20.796875 
L 9.078125 -20.796875 
L 9.078125 54.6875 
L 18.109375 54.6875 
L 18.109375 46.390625 
Q 20.953125 51.265625 25.265625 53.625 
Q 29.59375 56 35.59375 56 
Q 45.5625 56 51.78125 48.09375 
Q 58.015625 40.1875 58.015625 27.296875 
Q 58.015625 14.40625 51.78125 6.484375 
Q 45.5625 -1.421875 35.59375 -1.421875 
Q 29.59375 -1.421875 25.265625 0.953125 
Q 20.953125 3.328125 18.109375 8.203125 
z
M 48.6875 27.296875 
Q 48.6875 37.203125 44.609375 42.84375 
Q 40.53125 48.484375 33.40625 48.484375 
Q 26.265625 48.484375 22.1875 42.84375 
Q 18.109375 37.203125 18.109375 27.296875 
Q 18.109375 17.390625 22.1875 11.75 
Q 26.265625 6.109375 33.40625 6.109375 
Q 40.53125 6.109375 44.609375 11.75 
Q 48.6875 17.390625 48.6875 27.296875 
z
" id="DejaVuSans-112"/>
      <path d="M 44.28125 53.078125 
L 44.28125 44.578125 
Q 40.484375 46.53125 36.375 47.5 
Q 32.28125 48.484375 27.875 48.484375 
Q 21.1875 48.484375 17.84375 46.4375 
Q 14.5 44.390625 14.5 40.28125 
Q 14.5 37.15625 16.890625 35.375 
Q 19.28125 33.59375 26.515625 31.984375 
L 29.59375 31.296875 
Q 39.15625 29.25 43.1875 25.515625 
Q 47.21875 21.78125 47.21875 15.09375 
Q 47.21875 7.46875 41.1875 3.015625 
Q 35.15625 -1.421875 24.609375 -1.421875 
Q 20.21875 -1.421875 15.453125 -0.5625 
Q 10.6875 0.296875 5.421875 2 
L 5.421875 11.28125 
Q 10.40625 8.6875 15.234375 7.390625 
Q 20.0625 6.109375 24.8125 6.109375 
Q 31.15625 6.109375 34.5625 8.28125 
Q 37.984375 10.453125 37.984375 14.40625 
Q 37.984375 18.0625 35.515625 20.015625 
Q 33.0625 21.96875 24.703125 23.78125 
L 21.578125 24.515625 
Q 13.234375 26.265625 9.515625 29.90625 
Q 5.8125 33.546875 5.8125 39.890625 
Q 5.8125 47.609375 11.28125 51.796875 
Q 16.75 56 26.8125 56 
Q 31.78125 56 36.171875 55.265625 
Q 40.578125 54.546875 44.28125 53.078125 
z
" id="DejaVuSans-115"/>
      <path d="M 11.71875 12.40625 
L 22.015625 12.40625 
L 22.015625 0 
L 11.71875 0 
z
M 11.71875 51.703125 
L 22.015625 51.703125 
L 22.015625 39.3125 
L 11.71875 39.3125 
z
" id="DejaVuSans-58"/>
      <path d="M 25.390625 72.90625 
L 33.6875 72.90625 
L 8.296875 -9.28125 
L 0 -9.28125 
z
" id="DejaVuSans-47"/>
      <path d="M 4.203125 54.6875 
L 13.1875 54.6875 
L 24.421875 12.015625 
L 35.59375 54.6875 
L 46.1875 54.6875 
L 57.421875 12.015625 
L 68.609375 54.6875 
L 77.59375 54.6875 
L 63.28125 0 
L 52.6875 0 
L 40.921875 44.828125 
L 29.109375 0 
L 18.5 0 
z
" id="DejaVuSans-119"/>
      <path d="M 9.421875 54.6875 
L 18.40625 54.6875 
L 18.40625 0 
L 9.421875 0 
z
M 9.421875 75.984375 
L 18.40625 75.984375 
L 18.40625 64.59375 
L 9.421875 64.59375 
z
" id="DejaVuSans-105"/>
      <path d="M 56.203125 29.59375 
L 56.203125 25.203125 
L 14.890625 25.203125 
Q 15.484375 15.921875 20.484375 11.0625 
Q 25.484375 6.203125 34.421875 6.203125 
Q 39.59375 6.203125 44.453125 7.46875 
Q 49.3125 8.734375 54.109375 11.28125 
L 54.109375 2.78125 
Q 49.265625 0.734375 44.1875 -0.34375 
Q 39.109375 -1.421875 33.890625 -1.421875 
Q 20.796875 -1.421875 13.15625 6.1875 
Q 5.515625 13.8125 5.515625 26.8125 
Q 5.515625 40.234375 12.765625 48.109375 
Q 20.015625 56 32.328125 56 
Q 43.359375 56 49.78125 48.890625 
Q 56.203125 41.796875 56.203125 29.59375 
z
M 47.21875 32.234375 
Q 47.125 39.59375 43.09375 43.984375 
Q 39.0625 48.390625 32.421875 48.390625 
Q 24.90625 48.390625 20.390625 44.140625 
Q 15.875 39.890625 15.1875 32.171875 
z
" id="DejaVuSans-101"/>
      <path d="M 41.109375 46.296875 
Q 39.59375 47.171875 37.8125 47.578125 
Q 36.03125 48 33.890625 48 
Q 26.265625 48 22.1875 43.046875 
Q 18.109375 38.09375 18.109375 28.8125 
L 18.109375 0 
L 9.078125 0 
L 9.078125 54.6875 
L 18.109375 54.6875 
L 18.109375 46.1875 
Q 20.953125 51.171875 25.484375 53.578125 
Q 30.03125 56 36.53125 56 
Q 37.453125 56 38.578125 55.875 
Q 39.703125 55.765625 41.0625 55.515625 
z
" id="DejaVuSans-114"/>
      <path d="M 10.6875 12.40625 
L 21 12.40625 
L 21 0 
L 10.6875 0 
z
" id="DejaVuSans-46"/>
      <path d="M 48.78125 52.59375 
L 48.78125 44.1875 
Q 44.96875 46.296875 41.140625 47.34375 
Q 37.3125 48.390625 33.40625 48.390625 
Q 24.65625 48.390625 19.8125 42.84375 
Q 14.984375 37.3125 14.984375 27.296875 
Q 14.984375 17.28125 19.8125 11.734375 
Q 24.65625 6.203125 33.40625 6.203125 
Q 37.3125 6.203125 41.140625 7.25 
Q 44.96875 8.296875 48.78125 10.40625 
L 48.78125 2.09375 
Q 45.015625 0.34375 40.984375 -0.53125 
Q 36.96875 -1.421875 32.421875 -1.421875 
Q 20.0625 -1.421875 12.78125 6.34375 
Q 5.515625 14.109375 5.515625 27.296875 
Q 5.515625 40.671875 12.859375 48.328125 
Q 20.21875 56 33.015625 56 
Q 37.15625 56 41.109375 55.140625 
Q 45.0625 54.296875 48.78125 52.59375 
z
" id="DejaVuSans-99"/>
      <path d="M 30.609375 48.390625 
Q 23.390625 48.390625 19.1875 42.75 
Q 14.984375 37.109375 14.984375 27.296875 
Q 14.984375 17.484375 19.15625 11.84375 
Q 23.34375 6.203125 30.609375 6.203125 
Q 37.796875 6.203125 41.984375 11.859375 
Q 46.1875 17.53125 46.1875 27.296875 
Q 46.1875 37.015625 41.984375 42.703125 
Q 37.796875 48.390625 30.609375 48.390625 
z
M 30.609375 56 
Q 42.328125 56 49.015625 48.375 
Q 55.71875 40.765625 55.71875 27.296875 
Q 55.71875 13.875 49.015625 6.21875 
Q 42.328125 -1.421875 30.609375 -1.421875 
Q 18.84375 -1.421875 12.171875 6.21875 
Q 5.515625 13.875 5.515625 27.296875 
Q 5.515625 40.765625 12.171875 48.375 
Q 18.84375 56 30.609375 56 
z
" id="DejaVuSans-111"/>
      <path d="M 52 44.1875 
Q 55.375 50.25 60.0625 53.125 
Q 64.75 56 71.09375 56 
Q 79.640625 56 84.28125 50.015625 
Q 88.921875 44.046875 88.921875 33.015625 
L 88.921875 0 
L 79.890625 0 
L 79.890625 32.71875 
Q 79.890625 40.578125 77.09375 44.375 
Q 74.3125 48.1875 68.609375 48.1875 
Q 61.625 48.1875 57.5625 43.546875 
Q 53.515625 38.921875 53.515625 30.90625 
L 53.515625 0 
L 44.484375 0 
L 44.484375 32.71875 
Q 44.484375 40.625 41.703125 44.40625 
Q 38.921875 48.1875 33.109375 48.1875 
Q 26.21875 48.1875 22.15625 43.53125 
Q 18.109375 38.875 18.109375 30.90625 
L 18.109375 0 
L 9.078125 0 
L 9.078125 54.6875 
L 18.109375 54.6875 
L 18.109375 46.1875 
Q 21.1875 51.21875 25.484375 53.609375 
Q 29.78125 56 35.6875 56 
Q 41.65625 56 45.828125 52.96875 
Q 50 49.953125 52 44.1875 
z
" id="DejaVuSans-109"/>
      <path d="M 45.40625 46.390625 
L 45.40625 75.984375 
L 54.390625 75.984375 
L 54.390625 0 
L 45.40625 0 
L 45.40625 8.203125 
Q 42.578125 3.328125 38.25 0.953125 
Q 33.9375 -1.421875 27.875 -1.421875 
Q 17.96875 -1.421875 11.734375 6.484375 
Q 5.515625 14.40625 5.515625 27.296875 
Q 5.515625 40.1875 11.734375 48.09375 
Q 17.96875 56 27.875 56 
Q 33.9375 56 38.25 53.625 
Q 42.578125 51.265625 45.40625 46.390625 
z
M 14.796875 27.296875 
Q 14.796875 17.390625 18.875 11.75 
Q 22.953125 6.109375 30.078125 6.109375 
Q 37.203125 6.109375 41.296875 11.75 
Q 45.40625 17.390625 45.40625 27.296875 
Q 45.40625 37.203125 41.296875 42.84375 
Q 37.203125 48.484375 30.078125 48.484375 
Q 22.953125 48.484375 18.875 42.84375 
Q 14.796875 37.203125 14.796875 27.296875 
z
" id="DejaVuSans-100"/>
      <path d="M 8.5 21.578125 
L 8.5 54.6875 
L 17.484375 54.6875 
L 17.484375 21.921875 
Q 17.484375 14.15625 20.5 10.265625 
Q 23.53125 6.390625 29.59375 6.390625 
Q 36.859375 6.390625 41.078125 11.03125 
Q 45.3125 15.671875 45.3125 23.6875 
L 45.3125 54.6875 
L 54.296875 54.6875 
L 54.296875 0 
L 45.3125 0 
L 45.3125 8.40625 
Q 42.046875 3.421875 37.71875 1 
Q 33.40625 -1.421875 27.6875 -1.421875 
Q 18.265625 -1.421875 13.375 4.4375 
Q 8.5 10.296875 8.5 21.578125 
z
M 31.109375 56 
z
" id="DejaVuSans-117"/>
      <path d="M 5.515625 54.6875 
L 48.1875 54.6875 
L 48.1875 46.484375 
L 14.40625 7.171875 
L 48.1875 7.171875 
L 48.1875 0 
L 4.296875 0 
L 4.296875 8.203125 
L 38.09375 47.515625 
L 5.515625 47.515625 
z
" id="DejaVuSans-122"/>
      <path d="M 34.28125 27.484375 
Q 23.390625 27.484375 19.1875 25 
Q 14.984375 22.515625 14.984375 16.5 
Q 14.984375 11.71875 18.140625 8.90625 
Q 21.296875 6.109375 26.703125 6.109375 
Q 34.1875 6.109375 38.703125 11.40625 
Q 43.21875 16.703125 43.21875 25.484375 
L 43.21875 27.484375 
z
M 52.203125 31.203125 
L 52.203125 0 
L 43.21875 0 
L 43.21875 8.296875 
Q 40.140625 3.328125 35.546875 0.953125 
Q 30.953125 -1.421875 24.3125 -1.421875 
Q 15.921875 -1.421875 10.953125 3.296875 
Q 6 8.015625 6 15.921875 
Q 6 25.140625 12.171875 29.828125 
Q 18.359375 34.515625 30.609375 34.515625 
L 43.21875 34.515625 
L 43.21875 35.40625 
Q 43.21875 41.609375 39.140625 45 
Q 35.0625 48.390625 27.6875 48.390625 
Q 23 48.390625 18.546875 47.265625 
Q 14.109375 46.140625 10.015625 43.890625 
L 10.015625 52.203125 
Q 14.9375 54.109375 19.578125 55.046875 
Q 24.21875 56 28.609375 56 
Q 40.484375 56 46.34375 49.84375 
Q 52.203125 43.703125 52.203125 31.203125 
z
" id="DejaVuSans-97"/>
     </defs>
     <g transform="translate(231.052027 738.740135)scale(0.02 -0.02)">
      <use xlink:href="#DejaVuSans-104"/>
      <use x="63.378906" xlink:href="#DejaVuSans-116"/>
      <use x="102.587891" xlink:href="#DejaVuSans-116"/>
      <use x="141.796875" xlink:href="#DejaVuSans-112"/>
      <use x="205.273438" xlink:href="#DejaVuSans-115"/>
      <use x="257.373047" xlink:href="#DejaVuSans-58"/>
      <use x="291.064453" xlink:href="#DejaVuSans-47"/>
      <use x="324.755859" xlink:href="#DejaVuSans-47"/>
      <use x="358.447266" xlink:href="#DejaVuSans-116"/>
      <use x="397.65625" xlink:href="#DejaVuSans-119"/>
      <use x="479.443359" xlink:href="#DejaVuSans-105"/>
      <use x="507.226562" xlink:href="#DejaVuSans-116"/>
      <use x="546.435547" xlink:href="#DejaVuSans-116"/>
      <use x="585.644531" xlink:href="#DejaVuSans-101"/>
      <use x="647.167969" xlink:href="#DejaVuSans-114"/>
      <use x="679.15625" xlink:href="#DejaVuSans-46"/>
      <use x="710.943359" xlink:href="#DejaVuSans-99"/>
      <use x="765.923828" xlink:href="#DejaVuSans-111"/>
      <use x="827.105469" xlink:href="#DejaVuSans-109"/>
      <use x="924.517578" xlink:href="#DejaVuSans-47"/>
      <use x="958.208984" xlink:href="#DejaVuSans-116"/>
      <use x="997.417969" xlink:href="#DejaVuSans-101"/>
      <use x="1058.941406" xlink:href="#DejaVuSans-100"/>
      <use x="1122.417969" xlink:href="#DejaVuSans-99"/>
      <use x="1177.398438" xlink:href="#DejaVuSans-114"/>
      <use x="1218.511719" xlink:href="#DejaVuSans-117"/>
      <use x="1281.890625" xlink:href="#DejaVuSans-122"/>
      <use x="1334.380859" xlink:href="#DejaVuSans-47"/>
      <use x="1368.072266" xlink:href="#DejaVuSans-115"/>
      <use x="1420.171875" xlink:href="#DejaVuSans-116"/>
      <use x="1459.380859" xlink:href="#DejaVuSans-97"/>
      <use x="1520.660156" xlink:href="#DejaVuSans-116"/>
      <use x="1559.869141" xlink:href="#DejaVuSans-117"/>
      <use x="1623.248047" xlink:href="#DejaVuSans-115"/>
      <use x="1675.347656" xlink:href="#DejaVuSans-47"/>
      <use x="1709.039062" xlink:href="#DejaVuSans-49"/>
      <use x="1772.662109" xlink:href="#DejaVuSans-51"/>
      <use x="1836.285156" xlink:href="#DejaVuSans-49"/>
      <use x="1899.908203" xlink:href="#DejaVuSans-51"/>
      <use x="1963.53125" xlink:href="#DejaVuSans-52"/>
      <use x="2027.154297" xlink:href="#DejaVuSans-56"/>
      <use x="2090.777344" xlink:href="#DejaVuSans-53"/>
      <use x="2154.400391" xlink:href="#DejaVuSans-53"/>
      <use x="2218.023438" xlink:href="#DejaVuSans-51"/>
      <use x="2281.646484" xlink:href="#DejaVuSans-55"/>
      <use x="2345.269531" xlink:href="#DejaVuSans-55"/>
      <use x="2408.892578" xlink:href="#DejaVuSans-48"/>
      <use x="2472.515625" xlink:href="#DejaVuSans-50"/>
      <use x="2536.138672" xlink:href="#DejaVuSans-48"/>
      <use x="2599.761719" xlink:href="#DejaVuSans-49"/>
      <use x="2663.384766" xlink:href="#DejaVuSans-57"/>
      <use x="2727.007812" xlink:href="#DejaVuSans-48"/>
      <use x="2790.630859" xlink:href="#DejaVuSans-55"/>
      <use x="2854.253906" xlink:href="#DejaVuSans-50"/>
     </g>
    </g>
   </g>
   <g id="text_3">
    <g clip-path="url(#pc5e61a54bf)">
     <!-- 1313810467383586826 -->
     <g transform="translate(57.830586 485.811954)scale(0.02 -0.02)">
      <use xlink:href="#DejaVuSans-49"/>
      <use x="63.623047" xlink:href="#DejaVuSans-51"/>
      <use x="127.246094" xlink:href="#DejaVuSans-49"/>
      <use x="190.869141" xlink:href="#DejaVuSans-51"/>
      <use x="254.492188" xlink:href="#DejaVuSans-56"/>
      <use x="318.115234" xlink:href="#DejaVuSans-49"/>
      <use x="381.738281" xlink:href="#DejaVuSans-48"/>
      <use x="445.361328" xlink:href="#DejaVuSans-52"/>
      <use x="508.984375" xlink:href="#DejaVuSans-54"/>
      <use x="572.607422" xlink:href="#DejaVuSans-55"/>
      <use x="636.230469" xlink:href="#DejaVuSans-51"/>
      <use x="699.853516" xlink:href="#DejaVuSans-56"/>
      <use x="763.476562" xlink:href="#DejaVuSans-51"/>
      <use x="827.099609" xlink:href="#DejaVuSans-53"/>
      <use x="890.722656" xlink:href="#DejaVuSans-56"/>
      <use x="954.345703" xlink:href="#DejaVuSans-54"/>
      <use x="1017.96875" xlink:href="#DejaVuSans-56"/>
      <use x="1081.591797" xlink:href="#DejaVuSans-50"/>
      <use x="1145.214844" xlink:href="#DejaVuSans-54"/>
     </g>
    </g>
   </g>
   <g id="text_4">
    <g clip-path="url(#pc5e61a54bf)">
     <!-- https://twitter.com/Viral_GIFs/status/1313773047728406528 -->
     <defs>
      <path d="M 28.609375 0 
L 0.78125 72.90625 
L 11.078125 72.90625 
L 34.1875 11.53125 
L 57.328125 72.90625 
L 67.578125 72.90625 
L 39.796875 0 
z
" id="DejaVuSans-86"/>
      <path d="M 9.421875 75.984375 
L 18.40625 75.984375 
L 18.40625 0 
L 9.421875 0 
z
" id="DejaVuSans-108"/>
      <path d="M 50.984375 -16.609375 
L 50.984375 -23.578125 
L -0.984375 -23.578125 
L -0.984375 -16.609375 
z
" id="DejaVuSans-95"/>
      <path d="M 59.515625 10.40625 
L 59.515625 29.984375 
L 43.40625 29.984375 
L 43.40625 38.09375 
L 69.28125 38.09375 
L 69.28125 6.78125 
Q 63.578125 2.734375 56.6875 0.65625 
Q 49.8125 -1.421875 42 -1.421875 
Q 24.90625 -1.421875 15.25 8.5625 
Q 5.609375 18.5625 5.609375 36.375 
Q 5.609375 54.25 15.25 64.234375 
Q 24.90625 74.21875 42 74.21875 
Q 49.125 74.21875 55.546875 72.453125 
Q 61.96875 70.703125 67.390625 67.28125 
L 67.390625 56.78125 
Q 61.921875 61.421875 55.765625 63.765625 
Q 49.609375 66.109375 42.828125 66.109375 
Q 29.4375 66.109375 22.71875 58.640625 
Q 16.015625 51.171875 16.015625 36.375 
Q 16.015625 21.625 22.71875 14.15625 
Q 29.4375 6.6875 42.828125 6.6875 
Q 48.046875 6.6875 52.140625 7.59375 
Q 56.25 8.5 59.515625 10.40625 
z
" id="DejaVuSans-71"/>
      <path d="M 9.8125 72.90625 
L 19.671875 72.90625 
L 19.671875 0 
L 9.8125 0 
z
" id="DejaVuSans-73"/>
      <path d="M 9.8125 72.90625 
L 51.703125 72.90625 
L 51.703125 64.59375 
L 19.671875 64.59375 
L 19.671875 43.109375 
L 48.578125 43.109375 
L 48.578125 34.8125 
L 19.671875 34.8125 
L 19.671875 0 
L 9.8125 0 
z
" id="DejaVuSans-70"/>
     </defs>
     <g transform="translate(5.676406 495.621815)scale(0.02 -0.02)">
      <use xlink:href="#DejaVuSans-104"/>
      <use x="63.378906" xlink:href="#DejaVuSans-116"/>
      <use x="102.587891" xlink:href="#DejaVuSans-116"/>
      <use x="141.796875" xlink:href="#DejaVuSans-112"/>
      <use x="205.273438" xlink:href="#DejaVuSans-115"/>
      <use x="257.373047" xlink:href="#DejaVuSans-58"/>
      <use x="291.064453" xlink:href="#DejaVuSans-47"/>
      <use x="324.755859" xlink:href="#DejaVuSans-47"/>
      <use x="358.447266" xlink:href="#DejaVuSans-116"/>
      <use x="397.65625" xlink:href="#DejaVuSans-119"/>
      <use x="479.443359" xlink:href="#DejaVuSans-105"/>
      <use x="507.226562" xlink:href="#DejaVuSans-116"/>
      <use x="546.435547" xlink:href="#DejaVuSans-116"/>
      <use x="585.644531" xlink:href="#DejaVuSans-101"/>
      <use x="647.167969" xlink:href="#DejaVuSans-114"/>
      <use x="679.15625" xlink:href="#DejaVuSans-46"/>
      <use x="710.943359" xlink:href="#DejaVuSans-99"/>
      <use x="765.923828" xlink:href="#DejaVuSans-111"/>
      <use x="827.105469" xlink:href="#DejaVuSans-109"/>
      <use x="924.517578" xlink:href="#DejaVuSans-47"/>
      <use x="958.208984" xlink:href="#DejaVuSans-86"/>
      <use x="1024.367188" xlink:href="#DejaVuSans-105"/>
      <use x="1052.150391" xlink:href="#DejaVuSans-114"/>
      <use x="1093.263672" xlink:href="#DejaVuSans-97"/>
      <use x="1154.542969" xlink:href="#DejaVuSans-108"/>
      <use x="1182.326172" xlink:href="#DejaVuSans-95"/>
      <use x="1232.326172" xlink:href="#DejaVuSans-71"/>
      <use x="1309.816406" xlink:href="#DejaVuSans-73"/>
      <use x="1339.308594" xlink:href="#DejaVuSans-70"/>
      <use x="1396.828125" xlink:href="#DejaVuSans-115"/>
      <use x="1448.927734" xlink:href="#DejaVuSans-47"/>
      <use x="1482.619141" xlink:href="#DejaVuSans-115"/>
      <use x="1534.71875" xlink:href="#DejaVuSans-116"/>
      <use x="1573.927734" xlink:href="#DejaVuSans-97"/>
      <use x="1635.207031" xlink:href="#DejaVuSans-116"/>
      <use x="1674.416016" xlink:href="#DejaVuSans-117"/>
      <use x="1737.794922" xlink:href="#DejaVuSans-115"/>
      <use x="1789.894531" xlink:href="#DejaVuSans-47"/>
      <use x="1823.585938" xlink:href="#DejaVuSans-49"/>
      <use x="1887.208984" xlink:href="#DejaVuSans-51"/>
      <use x="1950.832031" xlink:href="#DejaVuSans-49"/>
      <use x="2014.455078" xlink:href="#DejaVuSans-51"/>
      <use x="2078.078125" xlink:href="#DejaVuSans-55"/>
      <use x="2141.701172" xlink:href="#DejaVuSans-55"/>
      <use x="2205.324219" xlink:href="#DejaVuSans-51"/>
      <use x="2268.947266" xlink:href="#DejaVuSans-48"/>
      <use x="2332.570312" xlink:href="#DejaVuSans-52"/>
      <use x="2396.193359" xlink:href="#DejaVuSans-55"/>
      <use x="2459.816406" xlink:href="#DejaVuSans-55"/>
      <use x="2523.439453" xlink:href="#DejaVuSans-50"/>
      <use x="2587.0625" xlink:href="#DejaVuSans-56"/>
      <use x="2650.685547" xlink:href="#DejaVuSans-52"/>
      <use x="2714.308594" xlink:href="#DejaVuSans-48"/>
      <use x="2777.931641" xlink:href="#DejaVuSans-54"/>
      <use x="2841.554688" xlink:href="#DejaVuSans-53"/>
      <use x="2905.177734" xlink:href="#DejaVuSans-50"/>
      <use x="2968.800781" xlink:href="#DejaVuSans-56"/>
     </g>
    </g>
   </g>
   <g id="text_5">
    <g clip-path="url(#pc5e61a54bf)">
     <!-- 1313868978431819778 -->
     <g transform="translate(645.809741 573.972299)scale(0.02 -0.02)">
      <use xlink:href="#DejaVuSans-49"/>
      <use x="63.623047" xlink:href="#DejaVuSans-51"/>
      <use x="127.246094" xlink:href="#DejaVuSans-49"/>
      <use x="190.869141" xlink:href="#DejaVuSans-51"/>
      <use x="254.492188" xlink:href="#DejaVuSans-56"/>
      <use x="318.115234" xlink:href="#DejaVuSans-54"/>
      <use x="381.738281" xlink:href="#DejaVuSans-56"/>
      <use x="445.361328" xlink:href="#DejaVuSans-57"/>
      <use x="508.984375" xlink:href="#DejaVuSans-55"/>
      <use x="572.607422" xlink:href="#DejaVuSans-56"/>
      <use x="636.230469" xlink:href="#DejaVuSans-52"/>
      <use x="699.853516" xlink:href="#DejaVuSans-51"/>
      <use x="763.476562" xlink:href="#DejaVuSans-49"/>
      <use x="827.099609" xlink:href="#DejaVuSans-56"/>
      <use x="890.722656" xlink:href="#DejaVuSans-49"/>
      <use x="954.345703" xlink:href="#DejaVuSans-57"/>
      <use x="1017.96875" xlink:href="#DejaVuSans-55"/>
      <use x="1081.591797" xlink:href="#DejaVuSans-55"/>
      <use x="1145.214844" xlink:href="#DejaVuSans-56"/>
     </g>
    </g>
   </g>
   <g id="text_6">
    <g clip-path="url(#pc5e61a54bf)">
     <!-- https://www.youtube.com/watch?v=V_dlgtSNwo4 -->
     <defs>
      <path d="M 32.171875 -5.078125 
Q 28.375 -14.84375 24.75 -17.8125 
Q 21.140625 -20.796875 15.09375 -20.796875 
L 7.90625 -20.796875 
L 7.90625 -13.28125 
L 13.1875 -13.28125 
Q 16.890625 -13.28125 18.9375 -11.515625 
Q 21 -9.765625 23.484375 -3.21875 
L 25.09375 0.875 
L 2.984375 54.6875 
L 12.5 54.6875 
L 29.59375 11.921875 
L 46.6875 54.6875 
L 56.203125 54.6875 
z
" id="DejaVuSans-121"/>
      <path d="M 48.6875 27.296875 
Q 48.6875 37.203125 44.609375 42.84375 
Q 40.53125 48.484375 33.40625 48.484375 
Q 26.265625 48.484375 22.1875 42.84375 
Q 18.109375 37.203125 18.109375 27.296875 
Q 18.109375 17.390625 22.1875 11.75 
Q 26.265625 6.109375 33.40625 6.109375 
Q 40.53125 6.109375 44.609375 11.75 
Q 48.6875 17.390625 48.6875 27.296875 
z
M 18.109375 46.390625 
Q 20.953125 51.265625 25.265625 53.625 
Q 29.59375 56 35.59375 56 
Q 45.5625 56 51.78125 48.09375 
Q 58.015625 40.1875 58.015625 27.296875 
Q 58.015625 14.40625 51.78125 6.484375 
Q 45.5625 -1.421875 35.59375 -1.421875 
Q 29.59375 -1.421875 25.265625 0.953125 
Q 20.953125 3.328125 18.109375 8.203125 
L 18.109375 0 
L 9.078125 0 
L 9.078125 75.984375 
L 18.109375 75.984375 
z
" id="DejaVuSans-98"/>
      <path d="M 19.09375 12.40625 
L 29 12.40625 
L 29 0 
L 19.09375 0 
z
M 28.71875 19.578125 
L 19.390625 19.578125 
L 19.390625 27.09375 
Q 19.390625 32.03125 20.75 35.203125 
Q 22.125 38.375 26.515625 42.578125 
L 30.90625 46.921875 
Q 33.6875 49.515625 34.9375 51.8125 
Q 36.1875 54.109375 36.1875 56.5 
Q 36.1875 60.84375 32.984375 63.53125 
Q 29.78125 66.21875 24.515625 66.21875 
Q 20.65625 66.21875 16.28125 64.5 
Q 11.921875 62.796875 7.171875 59.515625 
L 7.171875 68.703125 
Q 11.765625 71.484375 16.46875 72.84375 
Q 21.1875 74.21875 26.21875 74.21875 
Q 35.203125 74.21875 40.640625 69.484375 
Q 46.09375 64.75 46.09375 56.984375 
Q 46.09375 53.265625 44.328125 49.921875 
Q 42.578125 46.578125 38.1875 42.390625 
L 33.890625 38.1875 
Q 31.59375 35.890625 30.640625 34.59375 
Q 29.6875 33.296875 29.296875 32.078125 
Q 29 31.0625 28.859375 29.59375 
Q 28.71875 28.125 28.71875 25.59375 
z
" id="DejaVuSans-63"/>
      <path d="M 2.984375 54.6875 
L 12.5 54.6875 
L 29.59375 8.796875 
L 46.6875 54.6875 
L 56.203125 54.6875 
L 35.6875 0 
L 23.484375 0 
z
" id="DejaVuSans-118"/>
      <path d="M 10.59375 45.40625 
L 73.1875 45.40625 
L 73.1875 37.203125 
L 10.59375 37.203125 
z
M 10.59375 25.484375 
L 73.1875 25.484375 
L 73.1875 17.1875 
L 10.59375 17.1875 
z
" id="DejaVuSans-61"/>
      <path d="M 45.40625 27.984375 
Q 45.40625 37.75 41.375 43.109375 
Q 37.359375 48.484375 30.078125 48.484375 
Q 22.859375 48.484375 18.828125 43.109375 
Q 14.796875 37.75 14.796875 27.984375 
Q 14.796875 18.265625 18.828125 12.890625 
Q 22.859375 7.515625 30.078125 7.515625 
Q 37.359375 7.515625 41.375 12.890625 
Q 45.40625 18.265625 45.40625 27.984375 
z
M 54.390625 6.78125 
Q 54.390625 -7.171875 48.1875 -13.984375 
Q 42 -20.796875 29.203125 -20.796875 
Q 24.46875 -20.796875 20.265625 -20.09375 
Q 16.0625 -19.390625 12.109375 -17.921875 
L 12.109375 -9.1875 
Q 16.0625 -11.328125 19.921875 -12.34375 
Q 23.78125 -13.375 27.78125 -13.375 
Q 36.625 -13.375 41.015625 -8.765625 
Q 45.40625 -4.15625 45.40625 5.171875 
L 45.40625 9.625 
Q 42.625 4.78125 38.28125 2.390625 
Q 33.9375 0 27.875 0 
Q 17.828125 0 11.671875 7.65625 
Q 5.515625 15.328125 5.515625 27.984375 
Q 5.515625 40.671875 11.671875 48.328125 
Q 17.828125 56 27.875 56 
Q 33.9375 56 38.28125 53.609375 
Q 42.625 51.21875 45.40625 46.390625 
L 45.40625 54.6875 
L 54.390625 54.6875 
z
" id="DejaVuSans-103"/>
      <path d="M 53.515625 70.515625 
L 53.515625 60.890625 
Q 47.90625 63.578125 42.921875 64.890625 
Q 37.9375 66.21875 33.296875 66.21875 
Q 25.25 66.21875 20.875 63.09375 
Q 16.5 59.96875 16.5 54.203125 
Q 16.5 49.359375 19.40625 46.890625 
Q 22.3125 44.4375 30.421875 42.921875 
L 36.375 41.703125 
Q 47.40625 39.59375 52.65625 34.296875 
Q 57.90625 29 57.90625 20.125 
Q 57.90625 9.515625 50.796875 4.046875 
Q 43.703125 -1.421875 29.984375 -1.421875 
Q 24.8125 -1.421875 18.96875 -0.25 
Q 13.140625 0.921875 6.890625 3.21875 
L 6.890625 13.375 
Q 12.890625 10.015625 18.65625 8.296875 
Q 24.421875 6.59375 29.984375 6.59375 
Q 38.421875 6.59375 43.015625 9.90625 
Q 47.609375 13.234375 47.609375 19.390625 
Q 47.609375 24.75 44.3125 27.78125 
Q 41.015625 30.8125 33.5 32.328125 
L 27.484375 33.5 
Q 16.453125 35.6875 11.515625 40.375 
Q 6.59375 45.0625 6.59375 53.421875 
Q 6.59375 63.09375 13.40625 68.65625 
Q 20.21875 74.21875 32.171875 74.21875 
Q 37.3125 74.21875 42.625 73.28125 
Q 47.953125 72.359375 53.515625 70.515625 
z
" id="DejaVuSans-83"/>
      <path d="M 9.8125 72.90625 
L 23.09375 72.90625 
L 55.421875 11.921875 
L 55.421875 72.90625 
L 64.984375 72.90625 
L 64.984375 0 
L 51.703125 0 
L 19.390625 60.984375 
L 19.390625 0 
L 9.8125 0 
z
" id="DejaVuSans-78"/>
     </defs>
     <g transform="translate(658.433535 557.361928)scale(0.02 -0.02)">
      <use xlink:href="#DejaVuSans-104"/>
      <use x="63.378906" xlink:href="#DejaVuSans-116"/>
      <use x="102.587891" xlink:href="#DejaVuSans-116"/>
      <use x="141.796875" xlink:href="#DejaVuSans-112"/>
      <use x="205.273438" xlink:href="#DejaVuSans-115"/>
      <use x="257.373047" xlink:href="#DejaVuSans-58"/>
      <use x="291.064453" xlink:href="#DejaVuSans-47"/>
      <use x="324.755859" xlink:href="#DejaVuSans-47"/>
      <use x="358.447266" xlink:href="#DejaVuSans-119"/>
      <use x="440.234375" xlink:href="#DejaVuSans-119"/>
      <use x="522.021484" xlink:href="#DejaVuSans-119"/>
      <use x="594.683594" xlink:href="#DejaVuSans-46"/>
      <use x="626.470703" xlink:href="#DejaVuSans-121"/>
      <use x="685.650391" xlink:href="#DejaVuSans-111"/>
      <use x="746.832031" xlink:href="#DejaVuSans-117"/>
      <use x="810.210938" xlink:href="#DejaVuSans-116"/>
      <use x="849.419922" xlink:href="#DejaVuSans-117"/>
      <use x="912.798828" xlink:href="#DejaVuSans-98"/>
      <use x="976.275391" xlink:href="#DejaVuSans-101"/>
      <use x="1037.798828" xlink:href="#DejaVuSans-46"/>
      <use x="1069.585938" xlink:href="#DejaVuSans-99"/>
      <use x="1124.566406" xlink:href="#DejaVuSans-111"/>
      <use x="1185.748047" xlink:href="#DejaVuSans-109"/>
      <use x="1283.160156" xlink:href="#DejaVuSans-47"/>
      <use x="1316.851562" xlink:href="#DejaVuSans-119"/>
      <use x="1398.638672" xlink:href="#DejaVuSans-97"/>
      <use x="1459.917969" xlink:href="#DejaVuSans-116"/>
      <use x="1499.126953" xlink:href="#DejaVuSans-99"/>
      <use x="1554.107422" xlink:href="#DejaVuSans-104"/>
      <use x="1617.486328" xlink:href="#DejaVuSans-63"/>
      <use x="1670.5625" xlink:href="#DejaVuSans-118"/>
      <use x="1729.742188" xlink:href="#DejaVuSans-61"/>
      <use x="1813.53125" xlink:href="#DejaVuSans-86"/>
      <use x="1881.939453" xlink:href="#DejaVuSans-95"/>
      <use x="1931.939453" xlink:href="#DejaVuSans-100"/>
      <use x="1995.416016" xlink:href="#DejaVuSans-108"/>
      <use x="2023.199219" xlink:href="#DejaVuSans-103"/>
      <use x="2086.675781" xlink:href="#DejaVuSans-116"/>
      <use x="2125.884766" xlink:href="#DejaVuSans-83"/>
      <use x="2189.361328" xlink:href="#DejaVuSans-78"/>
      <use x="2264.166016" xlink:href="#DejaVuSans-119"/>
      <use x="2345.953125" xlink:href="#DejaVuSans-111"/>
      <use x="2407.134766" xlink:href="#DejaVuSans-52"/>
     </g>
    </g>
   </g>
   <g id="text_7">
    <g clip-path="url(#pc5e61a54bf)">
     <!-- 1313869830412435458 -->
     <g transform="translate(493.786743 36.551875)scale(0.02 -0.02)">
      <use xlink:href="#DejaVuSans-49"/>
      <use x="63.623047" xlink:href="#DejaVuSans-51"/>
      <use x="127.246094" xlink:href="#DejaVuSans-49"/>
      <use x="190.869141" xlink:href="#DejaVuSans-51"/>
      <use x="254.492188" xlink:href="#DejaVuSans-56"/>
      <use x="318.115234" xlink:href="#DejaVuSans-54"/>
      <use x="381.738281" xlink:href="#DejaVuSans-57"/>
      <use x="445.361328" xlink:href="#DejaVuSans-56"/>
      <use x="508.984375" xlink:href="#DejaVuSans-51"/>
      <use x="572.607422" xlink:href="#DejaVuSans-48"/>
      <use x="636.230469" xlink:href="#DejaVuSans-52"/>
      <use x="699.853516" xlink:href="#DejaVuSans-49"/>
      <use x="763.476562" xlink:href="#DejaVuSans-50"/>
      <use x="827.099609" xlink:href="#DejaVuSans-52"/>
      <use x="890.722656" xlink:href="#DejaVuSans-51"/>
      <use x="954.345703" xlink:href="#DejaVuSans-53"/>
      <use x="1017.96875" xlink:href="#DejaVuSans-52"/>
      <use x="1081.591797" xlink:href="#DejaVuSans-53"/>
      <use x="1145.214844" xlink:href="#DejaVuSans-56"/>
     </g>
    </g>
   </g>
   <g id="text_8">
    <g clip-path="url(#pc5e61a54bf)">
     <!-- https://web.de/magazine/politik/wahlen/us-wahl/corona-infektion-nachgewiesen-donald-trumps-sprecher-stephen-miller-begibt-quarantaene-35152440 -->
     <defs>
      <path d="M 54.890625 33.015625 
L 54.890625 0 
L 45.90625 0 
L 45.90625 32.71875 
Q 45.90625 40.484375 42.875 44.328125 
Q 39.84375 48.1875 33.796875 48.1875 
Q 26.515625 48.1875 22.3125 43.546875 
Q 18.109375 38.921875 18.109375 30.90625 
L 18.109375 0 
L 9.078125 0 
L 9.078125 54.6875 
L 18.109375 54.6875 
L 18.109375 46.1875 
Q 21.34375 51.125 25.703125 53.5625 
Q 30.078125 56 35.796875 56 
Q 45.21875 56 50.046875 50.171875 
Q 54.890625 44.34375 54.890625 33.015625 
z
" id="DejaVuSans-110"/>
      <path d="M 9.078125 75.984375 
L 18.109375 75.984375 
L 18.109375 31.109375 
L 44.921875 54.6875 
L 56.390625 54.6875 
L 27.390625 29.109375 
L 57.625 0 
L 45.90625 0 
L 18.109375 26.703125 
L 18.109375 0 
L 9.078125 0 
z
" id="DejaVuSans-107"/>
      <path d="M 4.890625 31.390625 
L 31.203125 31.390625 
L 31.203125 23.390625 
L 4.890625 23.390625 
z
" id="DejaVuSans-45"/>
      <path d="M 37.109375 75.984375 
L 37.109375 68.5 
L 28.515625 68.5 
Q 23.6875 68.5 21.796875 66.546875 
Q 19.921875 64.59375 19.921875 59.515625 
L 19.921875 54.6875 
L 34.71875 54.6875 
L 34.71875 47.703125 
L 19.921875 47.703125 
L 19.921875 0 
L 10.890625 0 
L 10.890625 47.703125 
L 2.296875 47.703125 
L 2.296875 54.6875 
L 10.890625 54.6875 
L 10.890625 58.5 
Q 10.890625 67.625 15.140625 71.796875 
Q 19.390625 75.984375 28.609375 75.984375 
z
" id="DejaVuSans-102"/>
      <path d="M 14.796875 27.296875 
Q 14.796875 17.390625 18.875 11.75 
Q 22.953125 6.109375 30.078125 6.109375 
Q 37.203125 6.109375 41.296875 11.75 
Q 45.40625 17.390625 45.40625 27.296875 
Q 45.40625 37.203125 41.296875 42.84375 
Q 37.203125 48.484375 30.078125 48.484375 
Q 22.953125 48.484375 18.875 42.84375 
Q 14.796875 37.203125 14.796875 27.296875 
z
M 45.40625 8.203125 
Q 42.578125 3.328125 38.25 0.953125 
Q 33.9375 -1.421875 27.875 -1.421875 
Q 17.96875 -1.421875 11.734375 6.484375 
Q 5.515625 14.40625 5.515625 27.296875 
Q 5.515625 40.1875 11.734375 48.09375 
Q 17.96875 56 27.875 56 
Q 33.9375 56 38.25 53.625 
Q 42.578125 51.265625 45.40625 46.390625 
L 45.40625 54.6875 
L 54.390625 54.6875 
L 54.390625 -20.796875 
L 45.40625 -20.796875 
z
" id="DejaVuSans-113"/>
     </defs>
     <g transform="translate(405.486696 54.568159)scale(0.02 -0.02)">
      <use xlink:href="#DejaVuSans-104"/>
      <use x="63.378906" xlink:href="#DejaVuSans-116"/>
      <use x="102.587891" xlink:href="#DejaVuSans-116"/>
      <use x="141.796875" xlink:href="#DejaVuSans-112"/>
      <use x="205.273438" xlink:href="#DejaVuSans-115"/>
      <use x="257.373047" xlink:href="#DejaVuSans-58"/>
      <use x="291.064453" xlink:href="#DejaVuSans-47"/>
      <use x="324.755859" xlink:href="#DejaVuSans-47"/>
      <use x="358.447266" xlink:href="#DejaVuSans-119"/>
      <use x="440.234375" xlink:href="#DejaVuSans-101"/>
      <use x="501.757812" xlink:href="#DejaVuSans-98"/>
      <use x="565.234375" xlink:href="#DejaVuSans-46"/>
      <use x="597.021484" xlink:href="#DejaVuSans-100"/>
      <use x="660.498047" xlink:href="#DejaVuSans-101"/>
      <use x="722.021484" xlink:href="#DejaVuSans-47"/>
      <use x="755.712891" xlink:href="#DejaVuSans-109"/>
      <use x="853.125" xlink:href="#DejaVuSans-97"/>
      <use x="914.404297" xlink:href="#DejaVuSans-103"/>
      <use x="977.880859" xlink:href="#DejaVuSans-97"/>
      <use x="1039.160156" xlink:href="#DejaVuSans-122"/>
      <use x="1091.650391" xlink:href="#DejaVuSans-105"/>
      <use x="1119.433594" xlink:href="#DejaVuSans-110"/>
      <use x="1182.8125" xlink:href="#DejaVuSans-101"/>
      <use x="1244.335938" xlink:href="#DejaVuSans-47"/>
      <use x="1278.027344" xlink:href="#DejaVuSans-112"/>
      <use x="1341.503906" xlink:href="#DejaVuSans-111"/>
      <use x="1402.685547" xlink:href="#DejaVuSans-108"/>
      <use x="1430.46875" xlink:href="#DejaVuSans-105"/>
      <use x="1458.251953" xlink:href="#DejaVuSans-116"/>
      <use x="1497.460938" xlink:href="#DejaVuSans-105"/>
      <use x="1525.244141" xlink:href="#DejaVuSans-107"/>
      <use x="1583.154297" xlink:href="#DejaVuSans-47"/>
      <use x="1616.845703" xlink:href="#DejaVuSans-119"/>
      <use x="1698.632812" xlink:href="#DejaVuSans-97"/>
      <use x="1759.912109" xlink:href="#DejaVuSans-104"/>
      <use x="1823.291016" xlink:href="#DejaVuSans-108"/>
      <use x="1851.074219" xlink:href="#DejaVuSans-101"/>
      <use x="1912.597656" xlink:href="#DejaVuSans-110"/>
      <use x="1975.976562" xlink:href="#DejaVuSans-47"/>
      <use x="2009.667969" xlink:href="#DejaVuSans-117"/>
      <use x="2073.046875" xlink:href="#DejaVuSans-115"/>
      <use x="2125.146484" xlink:href="#DejaVuSans-45"/>
      <use x="2161.230469" xlink:href="#DejaVuSans-119"/>
      <use x="2243.017578" xlink:href="#DejaVuSans-97"/>
      <use x="2304.296875" xlink:href="#DejaVuSans-104"/>
      <use x="2367.675781" xlink:href="#DejaVuSans-108"/>
      <use x="2395.458984" xlink:href="#DejaVuSans-47"/>
      <use x="2429.150391" xlink:href="#DejaVuSans-99"/>
      <use x="2484.130859" xlink:href="#DejaVuSans-111"/>
      <use x="2545.3125" xlink:href="#DejaVuSans-114"/>
      <use x="2584.175781" xlink:href="#DejaVuSans-111"/>
      <use x="2645.357422" xlink:href="#DejaVuSans-110"/>
      <use x="2708.736328" xlink:href="#DejaVuSans-97"/>
      <use x="2770.015625" xlink:href="#DejaVuSans-45"/>
      <use x="2806.099609" xlink:href="#DejaVuSans-105"/>
      <use x="2833.882812" xlink:href="#DejaVuSans-110"/>
      <use x="2897.261719" xlink:href="#DejaVuSans-102"/>
      <use x="2932.466797" xlink:href="#DejaVuSans-101"/>
      <use x="2993.990234" xlink:href="#DejaVuSans-107"/>
      <use x="3051.900391" xlink:href="#DejaVuSans-116"/>
      <use x="3091.109375" xlink:href="#DejaVuSans-105"/>
      <use x="3118.892578" xlink:href="#DejaVuSans-111"/>
      <use x="3180.074219" xlink:href="#DejaVuSans-110"/>
      <use x="3243.453125" xlink:href="#DejaVuSans-45"/>
      <use x="3279.537109" xlink:href="#DejaVuSans-110"/>
      <use x="3342.916016" xlink:href="#DejaVuSans-97"/>
      <use x="3404.195312" xlink:href="#DejaVuSans-99"/>
      <use x="3459.175781" xlink:href="#DejaVuSans-104"/>
      <use x="3522.554688" xlink:href="#DejaVuSans-103"/>
      <use x="3586.03125" xlink:href="#DejaVuSans-101"/>
      <use x="3647.554688" xlink:href="#DejaVuSans-119"/>
      <use x="3729.341797" xlink:href="#DejaVuSans-105"/>
      <use x="3757.125" xlink:href="#DejaVuSans-101"/>
      <use x="3818.648438" xlink:href="#DejaVuSans-115"/>
      <use x="3870.748047" xlink:href="#DejaVuSans-101"/>
      <use x="3932.271484" xlink:href="#DejaVuSans-110"/>
      <use x="3995.650391" xlink:href="#DejaVuSans-45"/>
      <use x="4031.734375" xlink:href="#DejaVuSans-100"/>
      <use x="4095.210938" xlink:href="#DejaVuSans-111"/>
      <use x="4156.392578" xlink:href="#DejaVuSans-110"/>
      <use x="4219.771484" xlink:href="#DejaVuSans-97"/>
      <use x="4281.050781" xlink:href="#DejaVuSans-108"/>
      <use x="4308.833984" xlink:href="#DejaVuSans-100"/>
      <use x="4372.310547" xlink:href="#DejaVuSans-45"/>
      <use x="4408.394531" xlink:href="#DejaVuSans-116"/>
      <use x="4447.603516" xlink:href="#DejaVuSans-114"/>
      <use x="4488.716797" xlink:href="#DejaVuSans-117"/>
      <use x="4552.095703" xlink:href="#DejaVuSans-109"/>
      <use x="4649.507812" xlink:href="#DejaVuSans-112"/>
      <use x="4712.984375" xlink:href="#DejaVuSans-115"/>
      <use x="4765.083984" xlink:href="#DejaVuSans-45"/>
      <use x="4801.167969" xlink:href="#DejaVuSans-115"/>
      <use x="4853.267578" xlink:href="#DejaVuSans-112"/>
      <use x="4916.744141" xlink:href="#DejaVuSans-114"/>
      <use x="4955.607422" xlink:href="#DejaVuSans-101"/>
      <use x="5017.130859" xlink:href="#DejaVuSans-99"/>
      <use x="5072.111328" xlink:href="#DejaVuSans-104"/>
      <use x="5135.490234" xlink:href="#DejaVuSans-101"/>
      <use x="5197.013672" xlink:href="#DejaVuSans-114"/>
      <use x="5231.751953" xlink:href="#DejaVuSans-45"/>
      <use x="5267.835938" xlink:href="#DejaVuSans-115"/>
      <use x="5319.935547" xlink:href="#DejaVuSans-116"/>
      <use x="5359.144531" xlink:href="#DejaVuSans-101"/>
      <use x="5420.667969" xlink:href="#DejaVuSans-112"/>
      <use x="5484.144531" xlink:href="#DejaVuSans-104"/>
      <use x="5547.523438" xlink:href="#DejaVuSans-101"/>
      <use x="5609.046875" xlink:href="#DejaVuSans-110"/>
      <use x="5672.425781" xlink:href="#DejaVuSans-45"/>
      <use x="5708.509766" xlink:href="#DejaVuSans-109"/>
      <use x="5805.921875" xlink:href="#DejaVuSans-105"/>
      <use x="5833.705078" xlink:href="#DejaVuSans-108"/>
      <use x="5861.488281" xlink:href="#DejaVuSans-108"/>
      <use x="5889.271484" xlink:href="#DejaVuSans-101"/>
      <use x="5950.794922" xlink:href="#DejaVuSans-114"/>
      <use x="5985.533203" xlink:href="#DejaVuSans-45"/>
      <use x="6021.617188" xlink:href="#DejaVuSans-98"/>
      <use x="6085.09375" xlink:href="#DejaVuSans-101"/>
      <use x="6146.617188" xlink:href="#DejaVuSans-103"/>
      <use x="6210.09375" xlink:href="#DejaVuSans-105"/>
      <use x="6237.876953" xlink:href="#DejaVuSans-98"/>
      <use x="6301.353516" xlink:href="#DejaVuSans-116"/>
      <use x="6340.5625" xlink:href="#DejaVuSans-45"/>
      <use x="6376.646484" xlink:href="#DejaVuSans-113"/>
      <use x="6440.123047" xlink:href="#DejaVuSans-117"/>
      <use x="6503.501953" xlink:href="#DejaVuSans-97"/>
      <use x="6564.78125" xlink:href="#DejaVuSans-114"/>
      <use x="6605.894531" xlink:href="#DejaVuSans-97"/>
      <use x="6667.173828" xlink:href="#DejaVuSans-110"/>
      <use x="6730.552734" xlink:href="#DejaVuSans-116"/>
      <use x="6769.761719" xlink:href="#DejaVuSans-97"/>
      <use x="6831.041016" xlink:href="#DejaVuSans-101"/>
      <use x="6892.564453" xlink:href="#DejaVuSans-110"/>
      <use x="6955.943359" xlink:href="#DejaVuSans-101"/>
      <use x="7017.466797" xlink:href="#DejaVuSans-45"/>
      <use x="7053.550781" xlink:href="#DejaVuSans-51"/>
      <use x="7117.173828" xlink:href="#DejaVuSans-53"/>
      <use x="7180.796875" xlink:href="#DejaVuSans-49"/>
      <use x="7244.419922" xlink:href="#DejaVuSans-53"/>
      <use x="7308.042969" xlink:href="#DejaVuSans-50"/>
      <use x="7371.666016" xlink:href="#DejaVuSans-52"/>
      <use x="7435.289062" xlink:href="#DejaVuSans-52"/>
      <use x="7498.912109" xlink:href="#DejaVuSans-48"/>
     </g>
    </g>
   </g>
   <g id="text_9">
    <g clip-path="url(#pc5e61a54bf)">
     <!-- 1313869818509041664 -->
     <g transform="translate(743.91125 407.733049)scale(0.02 -0.02)">
      <use xlink:href="#DejaVuSans-49"/>
      <use x="63.623047" xlink:href="#DejaVuSans-51"/>
      <use x="127.246094" xlink:href="#DejaVuSans-49"/>
      <use x="190.869141" xlink:href="#DejaVuSans-51"/>
      <use x="254.492188" xlink:href="#DejaVuSans-56"/>
      <use x="318.115234" xlink:href="#DejaVuSans-54"/>
      <use x="381.738281" xlink:href="#DejaVuSans-57"/>
      <use x="445.361328" xlink:href="#DejaVuSans-56"/>
      <use x="508.984375" xlink:href="#DejaVuSans-49"/>
      <use x="572.607422" xlink:href="#DejaVuSans-56"/>
      <use x="636.230469" xlink:href="#DejaVuSans-53"/>
      <use x="699.853516" xlink:href="#DejaVuSans-48"/>
      <use x="763.476562" xlink:href="#DejaVuSans-57"/>
      <use x="827.099609" xlink:href="#DejaVuSans-48"/>
      <use x="890.722656" xlink:href="#DejaVuSans-52"/>
      <use x="954.345703" xlink:href="#DejaVuSans-49"/>
      <use x="1017.96875" xlink:href="#DejaVuSans-54"/>
      <use x="1081.591797" xlink:href="#DejaVuSans-54"/>
      <use x="1145.214844" xlink:href="#DejaVuSans-52"/>
     </g>
    </g>
   </g>
   <g id="text_10">
    <g clip-path="url(#pc5e61a54bf)">
     <!-- https://twitter.com/hasomiyavdedi/status/1313813718556463104 -->
     <g transform="translate(702.380306 385.146672)scale(0.02 -0.02)">
      <use xlink:href="#DejaVuSans-104"/>
      <use x="63.378906" xlink:href="#DejaVuSans-116"/>
      <use x="102.587891" xlink:href="#DejaVuSans-116"/>
      <use x="141.796875" xlink:href="#DejaVuSans-112"/>
      <use x="205.273438" xlink:href="#DejaVuSans-115"/>
      <use x="257.373047" xlink:href="#DejaVuSans-58"/>
      <use x="291.064453" xlink:href="#DejaVuSans-47"/>
      <use x="324.755859" xlink:href="#DejaVuSans-47"/>
      <use x="358.447266" xlink:href="#DejaVuSans-116"/>
      <use x="397.65625" xlink:href="#DejaVuSans-119"/>
      <use x="479.443359" xlink:href="#DejaVuSans-105"/>
      <use x="507.226562" xlink:href="#DejaVuSans-116"/>
      <use x="546.435547" xlink:href="#DejaVuSans-116"/>
      <use x="585.644531" xlink:href="#DejaVuSans-101"/>
      <use x="647.167969" xlink:href="#DejaVuSans-114"/>
      <use x="679.15625" xlink:href="#DejaVuSans-46"/>
      <use x="710.943359" xlink:href="#DejaVuSans-99"/>
      <use x="765.923828" xlink:href="#DejaVuSans-111"/>
      <use x="827.105469" xlink:href="#DejaVuSans-109"/>
      <use x="924.517578" xlink:href="#DejaVuSans-47"/>
      <use x="958.208984" xlink:href="#DejaVuSans-104"/>
      <use x="1021.587891" xlink:href="#DejaVuSans-97"/>
      <use x="1082.867188" xlink:href="#DejaVuSans-115"/>
      <use x="1134.966797" xlink:href="#DejaVuSans-111"/>
      <use x="1196.148438" xlink:href="#DejaVuSans-109"/>
      <use x="1293.560547" xlink:href="#DejaVuSans-105"/>
      <use x="1321.34375" xlink:href="#DejaVuSans-121"/>
      <use x="1380.523438" xlink:href="#DejaVuSans-97"/>
      <use x="1441.802734" xlink:href="#DejaVuSans-118"/>
      <use x="1500.982422" xlink:href="#DejaVuSans-100"/>
      <use x="1564.458984" xlink:href="#DejaVuSans-101"/>
      <use x="1625.982422" xlink:href="#DejaVuSans-100"/>
      <use x="1689.458984" xlink:href="#DejaVuSans-105"/>
      <use x="1717.242188" xlink:href="#DejaVuSans-47"/>
      <use x="1750.933594" xlink:href="#DejaVuSans-115"/>
      <use x="1803.033203" xlink:href="#DejaVuSans-116"/>
      <use x="1842.242188" xlink:href="#DejaVuSans-97"/>
      <use x="1903.521484" xlink:href="#DejaVuSans-116"/>
      <use x="1942.730469" xlink:href="#DejaVuSans-117"/>
      <use x="2006.109375" xlink:href="#DejaVuSans-115"/>
      <use x="2058.208984" xlink:href="#DejaVuSans-47"/>
      <use x="2091.900391" xlink:href="#DejaVuSans-49"/>
      <use x="2155.523438" xlink:href="#DejaVuSans-51"/>
      <use x="2219.146484" xlink:href="#DejaVuSans-49"/>
      <use x="2282.769531" xlink:href="#DejaVuSans-51"/>
      <use x="2346.392578" xlink:href="#DejaVuSans-56"/>
      <use x="2410.015625" xlink:href="#DejaVuSans-49"/>
      <use x="2473.638672" xlink:href="#DejaVuSans-51"/>
      <use x="2537.261719" xlink:href="#DejaVuSans-55"/>
      <use x="2600.884766" xlink:href="#DejaVuSans-49"/>
      <use x="2664.507812" xlink:href="#DejaVuSans-56"/>
      <use x="2728.130859" xlink:href="#DejaVuSans-53"/>
      <use x="2791.753906" xlink:href="#DejaVuSans-53"/>
      <use x="2855.376953" xlink:href="#DejaVuSans-54"/>
      <use x="2919" xlink:href="#DejaVuSans-52"/>
      <use x="2982.623047" xlink:href="#DejaVuSans-54"/>
      <use x="3046.246094" xlink:href="#DejaVuSans-51"/>
      <use x="3109.869141" xlink:href="#DejaVuSans-49"/>
      <use x="3173.492188" xlink:href="#DejaVuSans-48"/>
      <use x="3237.115234" xlink:href="#DejaVuSans-52"/>
     </g>
    </g>
   </g>
   <g id="text_11">
    <g clip-path="url(#pc5e61a54bf)">
     <!-- 1313869808543375363 -->
     <g transform="translate(46.401166 256.1321)scale(0.02 -0.02)">
      <use xlink:href="#DejaVuSans-49"/>
      <use x="63.623047" xlink:href="#DejaVuSans-51"/>
      <use x="127.246094" xlink:href="#DejaVuSans-49"/>
      <use x="190.869141" xlink:href="#DejaVuSans-51"/>
      <use x="254.492188" xlink:href="#DejaVuSans-56"/>
      <use x="318.115234" xlink:href="#DejaVuSans-54"/>
      <use x="381.738281" xlink:href="#DejaVuSans-57"/>
      <use x="445.361328" xlink:href="#DejaVuSans-56"/>
      <use x="508.984375" xlink:href="#DejaVuSans-48"/>
      <use x="572.607422" xlink:href="#DejaVuSans-56"/>
      <use x="636.230469" xlink:href="#DejaVuSans-53"/>
      <use x="699.853516" xlink:href="#DejaVuSans-52"/>
      <use x="763.476562" xlink:href="#DejaVuSans-51"/>
      <use x="827.099609" xlink:href="#DejaVuSans-51"/>
      <use x="890.722656" xlink:href="#DejaVuSans-55"/>
      <use x="954.345703" xlink:href="#DejaVuSans-53"/>
      <use x="1017.96875" xlink:href="#DejaVuSans-51"/>
      <use x="1081.591797" xlink:href="#DejaVuSans-54"/>
      <use x="1145.214844" xlink:href="#DejaVuSans-51"/>
     </g>
    </g>
   </g>
   <g id="text_12">
    <g clip-path="url(#pc5e61a54bf)">
     <!-- https://gratisweg.eu/calendar/event/2069-andalusien-provinz-malaga-axarqu%C3%ADa-costa-del-sol-coronazahlen-vom-07-oktober-202/ -->
     <defs>
      <path d="M 54.890625 54.6875 
L 35.109375 28.078125 
L 55.90625 0 
L 45.3125 0 
L 29.390625 21.484375 
L 13.484375 0 
L 2.875 0 
L 24.125 28.609375 
L 4.6875 54.6875 
L 15.28125 54.6875 
L 29.78125 35.203125 
L 44.28125 54.6875 
z
" id="DejaVuSans-120"/>
      <path d="M 72.703125 32.078125 
Q 68.453125 32.078125 66.03125 28.46875 
Q 63.625 24.859375 63.625 18.40625 
Q 63.625 12.0625 66.03125 8.421875 
Q 68.453125 4.78125 72.703125 4.78125 
Q 76.859375 4.78125 79.265625 8.421875 
Q 81.6875 12.0625 81.6875 18.40625 
Q 81.6875 24.8125 79.265625 28.4375 
Q 76.859375 32.078125 72.703125 32.078125 
z
M 72.703125 38.28125 
Q 80.421875 38.28125 84.953125 32.90625 
Q 89.5 27.546875 89.5 18.40625 
Q 89.5 9.28125 84.9375 3.921875 
Q 80.375 -1.421875 72.703125 -1.421875 
Q 64.890625 -1.421875 60.34375 3.921875 
Q 55.8125 9.28125 55.8125 18.40625 
Q 55.8125 27.59375 60.375 32.9375 
Q 64.9375 38.28125 72.703125 38.28125 
z
M 22.3125 68.015625 
Q 18.109375 68.015625 15.6875 64.375 
Q 13.28125 60.75 13.28125 54.390625 
Q 13.28125 47.953125 15.671875 44.328125 
Q 18.0625 40.71875 22.3125 40.71875 
Q 26.5625 40.71875 28.96875 44.328125 
Q 31.390625 47.953125 31.390625 54.390625 
Q 31.390625 60.6875 28.953125 64.34375 
Q 26.515625 68.015625 22.3125 68.015625 
z
M 66.40625 74.21875 
L 74.21875 74.21875 
L 28.609375 -1.421875 
L 20.796875 -1.421875 
z
M 22.3125 74.21875 
Q 30.03125 74.21875 34.609375 68.875 
Q 39.203125 63.53125 39.203125 54.390625 
Q 39.203125 45.171875 34.640625 39.84375 
Q 30.078125 34.515625 22.3125 34.515625 
Q 14.546875 34.515625 10.03125 39.859375 
Q 5.515625 45.21875 5.515625 54.390625 
Q 5.515625 63.484375 10.046875 68.84375 
Q 14.59375 74.21875 22.3125 74.21875 
z
" id="DejaVuSans-37"/>
      <path d="M 64.40625 67.28125 
L 64.40625 56.890625 
Q 59.421875 61.53125 53.78125 63.8125 
Q 48.140625 66.109375 41.796875 66.109375 
Q 29.296875 66.109375 22.65625 58.46875 
Q 16.015625 50.828125 16.015625 36.375 
Q 16.015625 21.96875 22.65625 14.328125 
Q 29.296875 6.6875 41.796875 6.6875 
Q 48.140625 6.6875 53.78125 8.984375 
Q 59.421875 11.28125 64.40625 15.921875 
L 64.40625 5.609375 
Q 59.234375 2.09375 53.4375 0.328125 
Q 47.65625 -1.421875 41.21875 -1.421875 
Q 24.65625 -1.421875 15.125 8.703125 
Q 5.609375 18.84375 5.609375 36.375 
Q 5.609375 53.953125 15.125 64.078125 
Q 24.65625 74.21875 41.21875 74.21875 
Q 47.75 74.21875 53.53125 72.484375 
Q 59.328125 70.75 64.40625 67.28125 
z
" id="DejaVuSans-67"/>
      <path d="M 34.1875 63.1875 
L 20.796875 26.90625 
L 47.609375 26.90625 
z
M 28.609375 72.90625 
L 39.796875 72.90625 
L 67.578125 0 
L 57.328125 0 
L 50.6875 18.703125 
L 17.828125 18.703125 
L 11.1875 0 
L 0.78125 0 
z
" id="DejaVuSans-65"/>
      <path d="M 19.671875 64.796875 
L 19.671875 8.109375 
L 31.59375 8.109375 
Q 46.6875 8.109375 53.6875 14.9375 
Q 60.6875 21.78125 60.6875 36.53125 
Q 60.6875 51.171875 53.6875 57.984375 
Q 46.6875 64.796875 31.59375 64.796875 
z
M 9.8125 72.90625 
L 30.078125 72.90625 
Q 51.265625 72.90625 61.171875 64.09375 
Q 71.09375 55.28125 71.09375 36.53125 
Q 71.09375 17.671875 61.125 8.828125 
Q 51.171875 0 30.078125 0 
L 9.8125 0 
z
" id="DejaVuSans-68"/>
     </defs>
     <g transform="translate(-24.732977 228.870331)scale(0.02 -0.02)">
      <use xlink:href="#DejaVuSans-104"/>
      <use x="63.378906" xlink:href="#DejaVuSans-116"/>
      <use x="102.587891" xlink:href="#DejaVuSans-116"/>
      <use x="141.796875" xlink:href="#DejaVuSans-112"/>
      <use x="205.273438" xlink:href="#DejaVuSans-115"/>
      <use x="257.373047" xlink:href="#DejaVuSans-58"/>
      <use x="291.064453" xlink:href="#DejaVuSans-47"/>
      <use x="324.755859" xlink:href="#DejaVuSans-47"/>
      <use x="358.447266" xlink:href="#DejaVuSans-103"/>
      <use x="421.923828" xlink:href="#DejaVuSans-114"/>
      <use x="463.037109" xlink:href="#DejaVuSans-97"/>
      <use x="524.316406" xlink:href="#DejaVuSans-116"/>
      <use x="563.525391" xlink:href="#DejaVuSans-105"/>
      <use x="591.308594" xlink:href="#DejaVuSans-115"/>
      <use x="643.408203" xlink:href="#DejaVuSans-119"/>
      <use x="725.195312" xlink:href="#DejaVuSans-101"/>
      <use x="786.71875" xlink:href="#DejaVuSans-103"/>
      <use x="850.195312" xlink:href="#DejaVuSans-46"/>
      <use x="881.982422" xlink:href="#DejaVuSans-101"/>
      <use x="943.505859" xlink:href="#DejaVuSans-117"/>
      <use x="1006.884766" xlink:href="#DejaVuSans-47"/>
      <use x="1040.576172" xlink:href="#DejaVuSans-99"/>
      <use x="1095.556641" xlink:href="#DejaVuSans-97"/>
      <use x="1156.835938" xlink:href="#DejaVuSans-108"/>
      <use x="1184.619141" xlink:href="#DejaVuSans-101"/>
      <use x="1246.142578" xlink:href="#DejaVuSans-110"/>
      <use x="1309.521484" xlink:href="#DejaVuSans-100"/>
      <use x="1372.998047" xlink:href="#DejaVuSans-97"/>
      <use x="1434.277344" xlink:href="#DejaVuSans-114"/>
      <use x="1475.390625" xlink:href="#DejaVuSans-47"/>
      <use x="1509.082031" xlink:href="#DejaVuSans-101"/>
      <use x="1570.605469" xlink:href="#DejaVuSans-118"/>
      <use x="1629.785156" xlink:href="#DejaVuSans-101"/>
      <use x="1691.308594" xlink:href="#DejaVuSans-110"/>
      <use x="1754.6875" xlink:href="#DejaVuSans-116"/>
      <use x="1793.896484" xlink:href="#DejaVuSans-47"/>
      <use x="1827.587891" xlink:href="#DejaVuSans-50"/>
      <use x="1891.210938" xlink:href="#DejaVuSans-48"/>
      <use x="1954.833984" xlink:href="#DejaVuSans-54"/>
      <use x="2018.457031" xlink:href="#DejaVuSans-57"/>
      <use x="2082.080078" xlink:href="#DejaVuSans-45"/>
      <use x="2118.164062" xlink:href="#DejaVuSans-97"/>
      <use x="2179.443359" xlink:href="#DejaVuSans-110"/>
      <use x="2242.822266" xlink:href="#DejaVuSans-100"/>
      <use x="2306.298828" xlink:href="#DejaVuSans-97"/>
      <use x="2367.578125" xlink:href="#DejaVuSans-108"/>
      <use x="2395.361328" xlink:href="#DejaVuSans-117"/>
      <use x="2458.740234" xlink:href="#DejaVuSans-115"/>
      <use x="2510.839844" xlink:href="#DejaVuSans-105"/>
      <use x="2538.623047" xlink:href="#DejaVuSans-101"/>
      <use x="2600.146484" xlink:href="#DejaVuSans-110"/>
      <use x="2663.525391" xlink:href="#DejaVuSans-45"/>
      <use x="2699.609375" xlink:href="#DejaVuSans-112"/>
      <use x="2763.085938" xlink:href="#DejaVuSans-114"/>
      <use x="2801.949219" xlink:href="#DejaVuSans-111"/>
      <use x="2863.130859" xlink:href="#DejaVuSans-118"/>
      <use x="2922.310547" xlink:href="#DejaVuSans-105"/>
      <use x="2950.09375" xlink:href="#DejaVuSans-110"/>
      <use x="3013.472656" xlink:href="#DejaVuSans-122"/>
      <use x="3065.962891" xlink:href="#DejaVuSans-45"/>
      <use x="3102.046875" xlink:href="#DejaVuSans-109"/>
      <use x="3199.458984" xlink:href="#DejaVuSans-97"/>
      <use x="3260.738281" xlink:href="#DejaVuSans-108"/>
      <use x="3288.521484" xlink:href="#DejaVuSans-97"/>
      <use x="3349.800781" xlink:href="#DejaVuSans-103"/>
      <use x="3413.277344" xlink:href="#DejaVuSans-97"/>
      <use x="3474.556641" xlink:href="#DejaVuSans-45"/>
      <use x="3510.640625" xlink:href="#DejaVuSans-97"/>
      <use x="3571.919922" xlink:href="#DejaVuSans-120"/>
      <use x="3631.099609" xlink:href="#DejaVuSans-97"/>
      <use x="3692.378906" xlink:href="#DejaVuSans-114"/>
      <use x="3731.742188" xlink:href="#DejaVuSans-113"/>
      <use x="3795.21875" xlink:href="#DejaVuSans-117"/>
      <use x="3858.597656" xlink:href="#DejaVuSans-37"/>
      <use x="3953.617188" xlink:href="#DejaVuSans-67"/>
      <use x="4023.441406" xlink:href="#DejaVuSans-51"/>
      <use x="4087.064453" xlink:href="#DejaVuSans-37"/>
      <use x="4182.083984" xlink:href="#DejaVuSans-65"/>
      <use x="4250.492188" xlink:href="#DejaVuSans-68"/>
      <use x="4327.494141" xlink:href="#DejaVuSans-97"/>
      <use x="4388.773438" xlink:href="#DejaVuSans-45"/>
      <use x="4424.857422" xlink:href="#DejaVuSans-99"/>
      <use x="4479.837891" xlink:href="#DejaVuSans-111"/>
      <use x="4541.019531" xlink:href="#DejaVuSans-115"/>
      <use x="4593.119141" xlink:href="#DejaVuSans-116"/>
      <use x="4632.328125" xlink:href="#DejaVuSans-97"/>
      <use x="4693.607422" xlink:href="#DejaVuSans-45"/>
      <use x="4729.691406" xlink:href="#DejaVuSans-100"/>
      <use x="4793.167969" xlink:href="#DejaVuSans-101"/>
      <use x="4854.691406" xlink:href="#DejaVuSans-108"/>
      <use x="4882.474609" xlink:href="#DejaVuSans-45"/>
      <use x="4918.558594" xlink:href="#DejaVuSans-115"/>
      <use x="4970.658203" xlink:href="#DejaVuSans-111"/>
      <use x="5031.839844" xlink:href="#DejaVuSans-108"/>
      <use x="5059.623047" xlink:href="#DejaVuSans-45"/>
      <use x="5095.707031" xlink:href="#DejaVuSans-99"/>
      <use x="5150.6875" xlink:href="#DejaVuSans-111"/>
      <use x="5211.869141" xlink:href="#DejaVuSans-114"/>
      <use x="5250.732422" xlink:href="#DejaVuSans-111"/>
      <use x="5311.914062" xlink:href="#DejaVuSans-110"/>
      <use x="5375.292969" xlink:href="#DejaVuSans-97"/>
      <use x="5436.572266" xlink:href="#DejaVuSans-122"/>
      <use x="5489.0625" xlink:href="#DejaVuSans-97"/>
      <use x="5550.341797" xlink:href="#DejaVuSans-104"/>
      <use x="5613.720703" xlink:href="#DejaVuSans-108"/>
      <use x="5641.503906" xlink:href="#DejaVuSans-101"/>
      <use x="5703.027344" xlink:href="#DejaVuSans-110"/>
      <use x="5766.40625" xlink:href="#DejaVuSans-45"/>
      <use x="5799.865234" xlink:href="#DejaVuSans-118"/>
      <use x="5859.044922" xlink:href="#DejaVuSans-111"/>
      <use x="5920.226562" xlink:href="#DejaVuSans-109"/>
      <use x="6017.638672" xlink:href="#DejaVuSans-45"/>
      <use x="6053.722656" xlink:href="#DejaVuSans-48"/>
      <use x="6117.345703" xlink:href="#DejaVuSans-55"/>
      <use x="6180.96875" xlink:href="#DejaVuSans-45"/>
      <use x="6218.927734" xlink:href="#DejaVuSans-111"/>
      <use x="6280.109375" xlink:href="#DejaVuSans-107"/>
      <use x="6338.019531" xlink:href="#DejaVuSans-116"/>
      <use x="6377.228516" xlink:href="#DejaVuSans-111"/>
      <use x="6438.410156" xlink:href="#DejaVuSans-98"/>
      <use x="6501.886719" xlink:href="#DejaVuSans-101"/>
      <use x="6563.410156" xlink:href="#DejaVuSans-114"/>
      <use x="6598.148438" xlink:href="#DejaVuSans-45"/>
      <use x="6634.232422" xlink:href="#DejaVuSans-50"/>
      <use x="6697.855469" xlink:href="#DejaVuSans-48"/>
      <use x="6761.478516" xlink:href="#DejaVuSans-50"/>
      <use x="6825.101562" xlink:href="#DejaVuSans-47"/>
     </g>
    </g>
   </g>
   <g id="text_13">
    <g clip-path="url(#pc5e61a54bf)">
     <!-- 1313870039918018563 -->
     <g transform="translate(625.160792 256.822896)scale(0.02 -0.02)">
      <use xlink:href="#DejaVuSans-49"/>
      <use x="63.623047" xlink:href="#DejaVuSans-51"/>
      <use x="127.246094" xlink:href="#DejaVuSans-49"/>
      <use x="190.869141" xlink:href="#DejaVuSans-51"/>
      <use x="254.492188" xlink:href="#DejaVuSans-56"/>
      <use x="318.115234" xlink:href="#DejaVuSans-55"/>
      <use x="381.738281" xlink:href="#DejaVuSans-48"/>
      <use x="445.361328" xlink:href="#DejaVuSans-48"/>
      <use x="508.984375" xlink:href="#DejaVuSans-51"/>
      <use x="572.607422" xlink:href="#DejaVuSans-57"/>
      <use x="636.230469" xlink:href="#DejaVuSans-57"/>
      <use x="699.853516" xlink:href="#DejaVuSans-49"/>
      <use x="763.476562" xlink:href="#DejaVuSans-56"/>
      <use x="827.099609" xlink:href="#DejaVuSans-48"/>
      <use x="890.722656" xlink:href="#DejaVuSans-49"/>
      <use x="954.345703" xlink:href="#DejaVuSans-56"/>
      <use x="1017.96875" xlink:href="#DejaVuSans-53"/>
      <use x="1081.591797" xlink:href="#DejaVuSans-54"/>
      <use x="1145.214844" xlink:href="#DejaVuSans-51"/>
     </g>
    </g>
   </g>
   <g id="text_14">
    <g clip-path="url(#pc5e61a54bf)">
     <!-- https://www.rbb24.de/politik/thema/2020/coronavirus/beitraege_neu/2020/10/corona-untersuchungsausschuss-landtag-brandenburg-krisenpolitik.html -->
     <g transform="translate(584.866256 230.301743)scale(0.02 -0.02)">
      <use xlink:href="#DejaVuSans-104"/>
      <use x="63.378906" xlink:href="#DejaVuSans-116"/>
      <use x="102.587891" xlink:href="#DejaVuSans-116"/>
      <use x="141.796875" xlink:href="#DejaVuSans-112"/>
      <use x="205.273438" xlink:href="#DejaVuSans-115"/>
      <use x="257.373047" xlink:href="#DejaVuSans-58"/>
      <use x="291.064453" xlink:href="#DejaVuSans-47"/>
      <use x="324.755859" xlink:href="#DejaVuSans-47"/>
      <use x="358.447266" xlink:href="#DejaVuSans-119"/>
      <use x="440.234375" xlink:href="#DejaVuSans-119"/>
      <use x="522.021484" xlink:href="#DejaVuSans-119"/>
      <use x="594.683594" xlink:href="#DejaVuSans-46"/>
      <use x="626.470703" xlink:href="#DejaVuSans-114"/>
      <use x="667.583984" xlink:href="#DejaVuSans-98"/>
      <use x="731.060547" xlink:href="#DejaVuSans-98"/>
      <use x="794.537109" xlink:href="#DejaVuSans-50"/>
      <use x="858.160156" xlink:href="#DejaVuSans-52"/>
      <use x="921.783203" xlink:href="#DejaVuSans-46"/>
      <use x="953.570312" xlink:href="#DejaVuSans-100"/>
      <use x="1017.046875" xlink:href="#DejaVuSans-101"/>
      <use x="1078.570312" xlink:href="#DejaVuSans-47"/>
      <use x="1112.261719" xlink:href="#DejaVuSans-112"/>
      <use x="1175.738281" xlink:href="#DejaVuSans-111"/>
      <use x="1236.919922" xlink:href="#DejaVuSans-108"/>
      <use x="1264.703125" xlink:href="#DejaVuSans-105"/>
      <use x="1292.486328" xlink:href="#DejaVuSans-116"/>
      <use x="1331.695312" xlink:href="#DejaVuSans-105"/>
      <use x="1359.478516" xlink:href="#DejaVuSans-107"/>
      <use x="1417.388672" xlink:href="#DejaVuSans-47"/>
      <use x="1451.080078" xlink:href="#DejaVuSans-116"/>
      <use x="1490.289062" xlink:href="#DejaVuSans-104"/>
      <use x="1553.667969" xlink:href="#DejaVuSans-101"/>
      <use x="1615.191406" xlink:href="#DejaVuSans-109"/>
      <use x="1712.603516" xlink:href="#DejaVuSans-97"/>
      <use x="1773.882812" xlink:href="#DejaVuSans-47"/>
      <use x="1807.574219" xlink:href="#DejaVuSans-50"/>
      <use x="1871.197266" xlink:href="#DejaVuSans-48"/>
      <use x="1934.820312" xlink:href="#DejaVuSans-50"/>
      <use x="1998.443359" xlink:href="#DejaVuSans-48"/>
      <use x="2062.066406" xlink:href="#DejaVuSans-47"/>
      <use x="2095.757812" xlink:href="#DejaVuSans-99"/>
      <use x="2150.738281" xlink:href="#DejaVuSans-111"/>
      <use x="2211.919922" xlink:href="#DejaVuSans-114"/>
      <use x="2250.783203" xlink:href="#DejaVuSans-111"/>
      <use x="2311.964844" xlink:href="#DejaVuSans-110"/>
      <use x="2375.34375" xlink:href="#DejaVuSans-97"/>
      <use x="2436.623047" xlink:href="#DejaVuSans-118"/>
      <use x="2495.802734" xlink:href="#DejaVuSans-105"/>
      <use x="2523.585938" xlink:href="#DejaVuSans-114"/>
      <use x="2564.699219" xlink:href="#DejaVuSans-117"/>
      <use x="2628.078125" xlink:href="#DejaVuSans-115"/>
      <use x="2680.177734" xlink:href="#DejaVuSans-47"/>
      <use x="2713.869141" xlink:href="#DejaVuSans-98"/>
      <use x="2777.345703" xlink:href="#DejaVuSans-101"/>
      <use x="2838.869141" xlink:href="#DejaVuSans-105"/>
      <use x="2866.652344" xlink:href="#DejaVuSans-116"/>
      <use x="2905.861328" xlink:href="#DejaVuSans-114"/>
      <use x="2946.974609" xlink:href="#DejaVuSans-97"/>
      <use x="3008.253906" xlink:href="#DejaVuSans-101"/>
      <use x="3069.777344" xlink:href="#DejaVuSans-103"/>
      <use x="3133.253906" xlink:href="#DejaVuSans-101"/>
      <use x="3194.777344" xlink:href="#DejaVuSans-95"/>
      <use x="3244.777344" xlink:href="#DejaVuSans-110"/>
      <use x="3308.15625" xlink:href="#DejaVuSans-101"/>
      <use x="3369.679688" xlink:href="#DejaVuSans-117"/>
      <use x="3433.058594" xlink:href="#DejaVuSans-47"/>
      <use x="3466.75" xlink:href="#DejaVuSans-50"/>
      <use x="3530.373047" xlink:href="#DejaVuSans-48"/>
      <use x="3593.996094" xlink:href="#DejaVuSans-50"/>
      <use x="3657.619141" xlink:href="#DejaVuSans-48"/>
      <use x="3721.242188" xlink:href="#DejaVuSans-47"/>
      <use x="3754.933594" xlink:href="#DejaVuSans-49"/>
      <use x="3818.556641" xlink:href="#DejaVuSans-48"/>
      <use x="3882.179688" xlink:href="#DejaVuSans-47"/>
      <use x="3915.871094" xlink:href="#DejaVuSans-99"/>
      <use x="3970.851562" xlink:href="#DejaVuSans-111"/>
      <use x="4032.033203" xlink:href="#DejaVuSans-114"/>
      <use x="4070.896484" xlink:href="#DejaVuSans-111"/>
      <use x="4132.078125" xlink:href="#DejaVuSans-110"/>
      <use x="4195.457031" xlink:href="#DejaVuSans-97"/>
      <use x="4256.736328" xlink:href="#DejaVuSans-45"/>
      <use x="4292.820312" xlink:href="#DejaVuSans-117"/>
      <use x="4356.199219" xlink:href="#DejaVuSans-110"/>
      <use x="4419.578125" xlink:href="#DejaVuSans-116"/>
      <use x="4458.787109" xlink:href="#DejaVuSans-101"/>
      <use x="4520.310547" xlink:href="#DejaVuSans-114"/>
      <use x="4561.423828" xlink:href="#DejaVuSans-115"/>
      <use x="4613.523438" xlink:href="#DejaVuSans-117"/>
      <use x="4676.902344" xlink:href="#DejaVuSans-99"/>
      <use x="4731.882812" xlink:href="#DejaVuSans-104"/>
      <use x="4795.261719" xlink:href="#DejaVuSans-117"/>
      <use x="4858.640625" xlink:href="#DejaVuSans-110"/>
      <use x="4922.019531" xlink:href="#DejaVuSans-103"/>
      <use x="4985.496094" xlink:href="#DejaVuSans-115"/>
      <use x="5037.595703" xlink:href="#DejaVuSans-97"/>
      <use x="5098.875" xlink:href="#DejaVuSans-117"/>
      <use x="5162.253906" xlink:href="#DejaVuSans-115"/>
      <use x="5214.353516" xlink:href="#DejaVuSans-115"/>
      <use x="5266.453125" xlink:href="#DejaVuSans-99"/>
      <use x="5321.433594" xlink:href="#DejaVuSans-104"/>
      <use x="5384.8125" xlink:href="#DejaVuSans-117"/>
      <use x="5448.191406" xlink:href="#DejaVuSans-115"/>
      <use x="5500.291016" xlink:href="#DejaVuSans-115"/>
      <use x="5552.390625" xlink:href="#DejaVuSans-45"/>
      <use x="5588.474609" xlink:href="#DejaVuSans-108"/>
      <use x="5616.257812" xlink:href="#DejaVuSans-97"/>
      <use x="5677.537109" xlink:href="#DejaVuSans-110"/>
      <use x="5740.916016" xlink:href="#DejaVuSans-100"/>
      <use x="5804.392578" xlink:href="#DejaVuSans-116"/>
      <use x="5843.601562" xlink:href="#DejaVuSans-97"/>
      <use x="5904.880859" xlink:href="#DejaVuSans-103"/>
      <use x="5968.357422" xlink:href="#DejaVuSans-45"/>
      <use x="6004.441406" xlink:href="#DejaVuSans-98"/>
      <use x="6067.917969" xlink:href="#DejaVuSans-114"/>
      <use x="6109.03125" xlink:href="#DejaVuSans-97"/>
      <use x="6170.310547" xlink:href="#DejaVuSans-110"/>
      <use x="6233.689453" xlink:href="#DejaVuSans-100"/>
      <use x="6297.166016" xlink:href="#DejaVuSans-101"/>
      <use x="6358.689453" xlink:href="#DejaVuSans-110"/>
      <use x="6422.068359" xlink:href="#DejaVuSans-98"/>
      <use x="6485.544922" xlink:href="#DejaVuSans-117"/>
      <use x="6548.923828" xlink:href="#DejaVuSans-114"/>
      <use x="6588.287109" xlink:href="#DejaVuSans-103"/>
      <use x="6651.763672" xlink:href="#DejaVuSans-45"/>
      <use x="6687.847656" xlink:href="#DejaVuSans-107"/>
      <use x="6745.757812" xlink:href="#DejaVuSans-114"/>
      <use x="6786.871094" xlink:href="#DejaVuSans-105"/>
      <use x="6814.654297" xlink:href="#DejaVuSans-115"/>
      <use x="6866.753906" xlink:href="#DejaVuSans-101"/>
      <use x="6928.277344" xlink:href="#DejaVuSans-110"/>
      <use x="6991.65625" xlink:href="#DejaVuSans-112"/>
      <use x="7055.132812" xlink:href="#DejaVuSans-111"/>
      <use x="7116.314453" xlink:href="#DejaVuSans-108"/>
      <use x="7144.097656" xlink:href="#DejaVuSans-105"/>
      <use x="7171.880859" xlink:href="#DejaVuSans-116"/>
      <use x="7211.089844" xlink:href="#DejaVuSans-105"/>
      <use x="7238.873047" xlink:href="#DejaVuSans-107"/>
      <use x="7296.783203" xlink:href="#DejaVuSans-46"/>
      <use x="7328.570312" xlink:href="#DejaVuSans-104"/>
      <use x="7391.949219" xlink:href="#DejaVuSans-116"/>
      <use x="7431.158203" xlink:href="#DejaVuSans-109"/>
      <use x="7528.570312" xlink:href="#DejaVuSans-108"/>
     </g>
    </g>
   </g>
   <g id="text_15">
    <g clip-path="url(#pc5e61a54bf)">
     <!-- 1313870019516915716 -->
     <g transform="translate(246.307004 104.763627)scale(0.02 -0.02)">
      <use xlink:href="#DejaVuSans-49"/>
      <use x="63.623047" xlink:href="#DejaVuSans-51"/>
      <use x="127.246094" xlink:href="#DejaVuSans-49"/>
      <use x="190.869141" xlink:href="#DejaVuSans-51"/>
      <use x="254.492188" xlink:href="#DejaVuSans-56"/>
      <use x="318.115234" xlink:href="#DejaVuSans-55"/>
      <use x="381.738281" xlink:href="#DejaVuSans-48"/>
      <use x="445.361328" xlink:href="#DejaVuSans-48"/>
      <use x="508.984375" xlink:href="#DejaVuSans-49"/>
      <use x="572.607422" xlink:href="#DejaVuSans-57"/>
      <use x="636.230469" xlink:href="#DejaVuSans-53"/>
      <use x="699.853516" xlink:href="#DejaVuSans-49"/>
      <use x="763.476562" xlink:href="#DejaVuSans-54"/>
      <use x="827.099609" xlink:href="#DejaVuSans-57"/>
      <use x="890.722656" xlink:href="#DejaVuSans-49"/>
      <use x="954.345703" xlink:href="#DejaVuSans-53"/>
      <use x="1017.96875" xlink:href="#DejaVuSans-55"/>
      <use x="1081.591797" xlink:href="#DejaVuSans-49"/>
      <use x="1145.214844" xlink:href="#DejaVuSans-54"/>
     </g>
    </g>
   </g>
   <g id="text_16">
    <g clip-path="url(#pc5e61a54bf)">
     <!-- http://www.ueberschriften.com/?nr=5842330 -->
     <g transform="translate(222.17543 73.436586)scale(0.02 -0.02)">
      <use xlink:href="#DejaVuSans-104"/>
      <use x="63.378906" xlink:href="#DejaVuSans-116"/>
      <use x="102.587891" xlink:href="#DejaVuSans-116"/>
      <use x="141.796875" xlink:href="#DejaVuSans-112"/>
      <use x="205.273438" xlink:href="#DejaVuSans-58"/>
      <use x="238.964844" xlink:href="#DejaVuSans-47"/>
      <use x="272.65625" xlink:href="#DejaVuSans-47"/>
      <use x="306.347656" xlink:href="#DejaVuSans-119"/>
      <use x="388.134766" xlink:href="#DejaVuSans-119"/>
      <use x="469.921875" xlink:href="#DejaVuSans-119"/>
      <use x="542.583984" xlink:href="#DejaVuSans-46"/>
      <use x="574.371094" xlink:href="#DejaVuSans-117"/>
      <use x="637.75" xlink:href="#DejaVuSans-101"/>
      <use x="699.273438" xlink:href="#DejaVuSans-98"/>
      <use x="762.75" xlink:href="#DejaVuSans-101"/>
      <use x="824.273438" xlink:href="#DejaVuSans-114"/>
      <use x="865.386719" xlink:href="#DejaVuSans-115"/>
      <use x="917.486328" xlink:href="#DejaVuSans-99"/>
      <use x="972.466797" xlink:href="#DejaVuSans-104"/>
      <use x="1035.845703" xlink:href="#DejaVuSans-114"/>
      <use x="1076.958984" xlink:href="#DejaVuSans-105"/>
      <use x="1104.742188" xlink:href="#DejaVuSans-102"/>
      <use x="1138.197266" xlink:href="#DejaVuSans-116"/>
      <use x="1177.40625" xlink:href="#DejaVuSans-101"/>
      <use x="1238.929688" xlink:href="#DejaVuSans-110"/>
      <use x="1302.308594" xlink:href="#DejaVuSans-46"/>
      <use x="1334.095703" xlink:href="#DejaVuSans-99"/>
      <use x="1389.076172" xlink:href="#DejaVuSans-111"/>
      <use x="1450.257812" xlink:href="#DejaVuSans-109"/>
      <use x="1547.669922" xlink:href="#DejaVuSans-47"/>
      <use x="1581.361328" xlink:href="#DejaVuSans-63"/>
      <use x="1634.4375" xlink:href="#DejaVuSans-110"/>
      <use x="1697.816406" xlink:href="#DejaVuSans-114"/>
      <use x="1738.929688" xlink:href="#DejaVuSans-61"/>
      <use x="1822.71875" xlink:href="#DejaVuSans-53"/>
      <use x="1886.341797" xlink:href="#DejaVuSans-56"/>
      <use x="1949.964844" xlink:href="#DejaVuSans-52"/>
      <use x="2013.587891" xlink:href="#DejaVuSans-50"/>
      <use x="2077.210938" xlink:href="#DejaVuSans-51"/>
      <use x="2140.833984" xlink:href="#DejaVuSans-51"/>
      <use x="2204.457031" xlink:href="#DejaVuSans-48"/>
     </g>
    </g>
   </g>
   <g id="text_17">
    <g clip-path="url(#pc5e61a54bf)">
     <!-- 1313870972278181894 -->
     <g transform="translate(556.396557 744.474819)scale(0.02 -0.02)">
      <use xlink:href="#DejaVuSans-49"/>
      <use x="63.623047" xlink:href="#DejaVuSans-51"/>
      <use x="127.246094" xlink:href="#DejaVuSans-49"/>
      <use x="190.869141" xlink:href="#DejaVuSans-51"/>
      <use x="254.492188" xlink:href="#DejaVuSans-56"/>
      <use x="318.115234" xlink:href="#DejaVuSans-55"/>
      <use x="381.738281" xlink:href="#DejaVuSans-48"/>
      <use x="445.361328" xlink:href="#DejaVuSans-57"/>
      <use x="508.984375" xlink:href="#DejaVuSans-55"/>
      <use x="572.607422" xlink:href="#DejaVuSans-50"/>
      <use x="636.230469" xlink:href="#DejaVuSans-50"/>
      <use x="699.853516" xlink:href="#DejaVuSans-55"/>
      <use x="763.476562" xlink:href="#DejaVuSans-56"/>
      <use x="827.099609" xlink:href="#DejaVuSans-49"/>
      <use x="890.722656" xlink:href="#DejaVuSans-56"/>
      <use x="954.345703" xlink:href="#DejaVuSans-49"/>
      <use x="1017.96875" xlink:href="#DejaVuSans-56"/>
      <use x="1081.591797" xlink:href="#DejaVuSans-57"/>
      <use x="1145.214844" xlink:href="#DejaVuSans-52"/>
     </g>
    </g>
   </g>
   <g id="text_18">
    <g clip-path="url(#pc5e61a54bf)">
     <!-- https://twitter.com/lthsdailybrazil/status/1313859731379941376 -->
     <g transform="translate(506.218649 739.513671)scale(0.02 -0.02)">
      <use xlink:href="#DejaVuSans-104"/>
      <use x="63.378906" xlink:href="#DejaVuSans-116"/>
      <use x="102.587891" xlink:href="#DejaVuSans-116"/>
      <use x="141.796875" xlink:href="#DejaVuSans-112"/>
      <use x="205.273438" xlink:href="#DejaVuSans-115"/>
      <use x="257.373047" xlink:href="#DejaVuSans-58"/>
      <use x="291.064453" xlink:href="#DejaVuSans-47"/>
      <use x="324.755859" xlink:href="#DejaVuSans-47"/>
      <use x="358.447266" xlink:href="#DejaVuSans-116"/>
      <use x="397.65625" xlink:href="#DejaVuSans-119"/>
      <use x="479.443359" xlink:href="#DejaVuSans-105"/>
      <use x="507.226562" xlink:href="#DejaVuSans-116"/>
      <use x="546.435547" xlink:href="#DejaVuSans-116"/>
      <use x="585.644531" xlink:href="#DejaVuSans-101"/>
      <use x="647.167969" xlink:href="#DejaVuSans-114"/>
      <use x="679.15625" xlink:href="#DejaVuSans-46"/>
      <use x="710.943359" xlink:href="#DejaVuSans-99"/>
      <use x="765.923828" xlink:href="#DejaVuSans-111"/>
      <use x="827.105469" xlink:href="#DejaVuSans-109"/>
      <use x="924.517578" xlink:href="#DejaVuSans-47"/>
      <use x="958.208984" xlink:href="#DejaVuSans-108"/>
      <use x="985.992188" xlink:href="#DejaVuSans-116"/>
      <use x="1025.201172" xlink:href="#DejaVuSans-104"/>
      <use x="1088.580078" xlink:href="#DejaVuSans-115"/>
      <use x="1140.679688" xlink:href="#DejaVuSans-100"/>
      <use x="1204.15625" xlink:href="#DejaVuSans-97"/>
      <use x="1265.435547" xlink:href="#DejaVuSans-105"/>
      <use x="1293.21875" xlink:href="#DejaVuSans-108"/>
      <use x="1321.001953" xlink:href="#DejaVuSans-121"/>
      <use x="1380.181641" xlink:href="#DejaVuSans-98"/>
      <use x="1443.658203" xlink:href="#DejaVuSans-114"/>
      <use x="1484.771484" xlink:href="#DejaVuSans-97"/>
      <use x="1546.050781" xlink:href="#DejaVuSans-122"/>
      <use x="1598.541016" xlink:href="#DejaVuSans-105"/>
      <use x="1626.324219" xlink:href="#DejaVuSans-108"/>
      <use x="1654.107422" xlink:href="#DejaVuSans-47"/>
      <use x="1687.798828" xlink:href="#DejaVuSans-115"/>
      <use x="1739.898438" xlink:href="#DejaVuSans-116"/>
      <use x="1779.107422" xlink:href="#DejaVuSans-97"/>
      <use x="1840.386719" xlink:href="#DejaVuSans-116"/>
      <use x="1879.595703" xlink:href="#DejaVuSans-117"/>
      <use x="1942.974609" xlink:href="#DejaVuSans-115"/>
      <use x="1995.074219" xlink:href="#DejaVuSans-47"/>
      <use x="2028.765625" xlink:href="#DejaVuSans-49"/>
      <use x="2092.388672" xlink:href="#DejaVuSans-51"/>
      <use x="2156.011719" xlink:href="#DejaVuSans-49"/>
      <use x="2219.634766" xlink:href="#DejaVuSans-51"/>
      <use x="2283.257812" xlink:href="#DejaVuSans-56"/>
      <use x="2346.880859" xlink:href="#DejaVuSans-53"/>
      <use x="2410.503906" xlink:href="#DejaVuSans-57"/>
      <use x="2474.126953" xlink:href="#DejaVuSans-55"/>
      <use x="2537.75" xlink:href="#DejaVuSans-51"/>
      <use x="2601.373047" xlink:href="#DejaVuSans-49"/>
      <use x="2664.996094" xlink:href="#DejaVuSans-51"/>
      <use x="2728.619141" xlink:href="#DejaVuSans-55"/>
      <use x="2792.242188" xlink:href="#DejaVuSans-57"/>
      <use x="2855.865234" xlink:href="#DejaVuSans-57"/>
      <use x="2919.488281" xlink:href="#DejaVuSans-52"/>
      <use x="2983.111328" xlink:href="#DejaVuSans-49"/>
      <use x="3046.734375" xlink:href="#DejaVuSans-51"/>
      <use x="3110.357422" xlink:href="#DejaVuSans-55"/>
      <use x="3173.980469" xlink:href="#DejaVuSans-54"/>
     </g>
    </g>
   </g>
   <g id="text_19">
    <g clip-path="url(#pc5e61a54bf)">
     <!-- 1315677031665995784 -->
     <g transform="translate(273.377144 582.065461)scale(0.02 -0.02)">
      <use xlink:href="#DejaVuSans-49"/>
      <use x="63.623047" xlink:href="#DejaVuSans-51"/>
      <use x="127.246094" xlink:href="#DejaVuSans-49"/>
      <use x="190.869141" xlink:href="#DejaVuSans-53"/>
      <use x="254.492188" xlink:href="#DejaVuSans-54"/>
      <use x="318.115234" xlink:href="#DejaVuSans-55"/>
      <use x="381.738281" xlink:href="#DejaVuSans-55"/>
      <use x="445.361328" xlink:href="#DejaVuSans-48"/>
      <use x="508.984375" xlink:href="#DejaVuSans-51"/>
      <use x="572.607422" xlink:href="#DejaVuSans-49"/>
      <use x="636.230469" xlink:href="#DejaVuSans-54"/>
      <use x="699.853516" xlink:href="#DejaVuSans-54"/>
      <use x="763.476562" xlink:href="#DejaVuSans-53"/>
      <use x="827.099609" xlink:href="#DejaVuSans-57"/>
      <use x="890.722656" xlink:href="#DejaVuSans-57"/>
      <use x="954.345703" xlink:href="#DejaVuSans-53"/>
      <use x="1017.96875" xlink:href="#DejaVuSans-55"/>
      <use x="1081.591797" xlink:href="#DejaVuSans-56"/>
      <use x="1145.214844" xlink:href="#DejaVuSans-52"/>
     </g>
    </g>
   </g>
   <g id="text_20">
    <g clip-path="url(#pc5e61a54bf)">
     <!-- https://twitter.com/justrycole/status/1315489670348693504 -->
     <defs>
      <path d="M 9.421875 54.6875 
L 18.40625 54.6875 
L 18.40625 -0.984375 
Q 18.40625 -11.421875 14.421875 -16.109375 
Q 10.453125 -20.796875 1.609375 -20.796875 
L -1.8125 -20.796875 
L -1.8125 -13.1875 
L 0.59375 -13.1875 
Q 5.71875 -13.1875 7.5625 -10.8125 
Q 9.421875 -8.453125 9.421875 -0.984375 
z
M 9.421875 75.984375 
L 18.40625 75.984375 
L 18.40625 64.59375 
L 9.421875 64.59375 
z
" id="DejaVuSans-106"/>
     </defs>
     <g transform="translate(233.05294 560.926146)scale(0.02 -0.02)">
      <use xlink:href="#DejaVuSans-104"/>
      <use x="63.378906" xlink:href="#DejaVuSans-116"/>
      <use x="102.587891" xlink:href="#DejaVuSans-116"/>
      <use x="141.796875" xlink:href="#DejaVuSans-112"/>
      <use x="205.273438" xlink:href="#DejaVuSans-115"/>
      <use x="257.373047" xlink:href="#DejaVuSans-58"/>
      <use x="291.064453" xlink:href="#DejaVuSans-47"/>
      <use x="324.755859" xlink:href="#DejaVuSans-47"/>
      <use x="358.447266" xlink:href="#DejaVuSans-116"/>
      <use x="397.65625" xlink:href="#DejaVuSans-119"/>
      <use x="479.443359" xlink:href="#DejaVuSans-105"/>
      <use x="507.226562" xlink:href="#DejaVuSans-116"/>
      <use x="546.435547" xlink:href="#DejaVuSans-116"/>
      <use x="585.644531" xlink:href="#DejaVuSans-101"/>
      <use x="647.167969" xlink:href="#DejaVuSans-114"/>
      <use x="679.15625" xlink:href="#DejaVuSans-46"/>
      <use x="710.943359" xlink:href="#DejaVuSans-99"/>
      <use x="765.923828" xlink:href="#DejaVuSans-111"/>
      <use x="827.105469" xlink:href="#DejaVuSans-109"/>
      <use x="924.517578" xlink:href="#DejaVuSans-47"/>
      <use x="958.208984" xlink:href="#DejaVuSans-106"/>
      <use x="985.992188" xlink:href="#DejaVuSans-117"/>
      <use x="1049.371094" xlink:href="#DejaVuSans-115"/>
      <use x="1101.470703" xlink:href="#DejaVuSans-116"/>
      <use x="1140.679688" xlink:href="#DejaVuSans-114"/>
      <use x="1181.792969" xlink:href="#DejaVuSans-121"/>
      <use x="1240.972656" xlink:href="#DejaVuSans-99"/>
      <use x="1295.953125" xlink:href="#DejaVuSans-111"/>
      <use x="1357.134766" xlink:href="#DejaVuSans-108"/>
      <use x="1384.917969" xlink:href="#DejaVuSans-101"/>
      <use x="1446.441406" xlink:href="#DejaVuSans-47"/>
      <use x="1480.132812" xlink:href="#DejaVuSans-115"/>
      <use x="1532.232422" xlink:href="#DejaVuSans-116"/>
      <use x="1571.441406" xlink:href="#DejaVuSans-97"/>
      <use x="1632.720703" xlink:href="#DejaVuSans-116"/>
      <use x="1671.929688" xlink:href="#DejaVuSans-117"/>
      <use x="1735.308594" xlink:href="#DejaVuSans-115"/>
      <use x="1787.408203" xlink:href="#DejaVuSans-47"/>
      <use x="1821.099609" xlink:href="#DejaVuSans-49"/>
      <use x="1884.722656" xlink:href="#DejaVuSans-51"/>
      <use x="1948.345703" xlink:href="#DejaVuSans-49"/>
      <use x="2011.96875" xlink:href="#DejaVuSans-53"/>
      <use x="2075.591797" xlink:href="#DejaVuSans-52"/>
      <use x="2139.214844" xlink:href="#DejaVuSans-56"/>
      <use x="2202.837891" xlink:href="#DejaVuSans-57"/>
      <use x="2266.460938" xlink:href="#DejaVuSans-54"/>
      <use x="2330.083984" xlink:href="#DejaVuSans-55"/>
      <use x="2393.707031" xlink:href="#DejaVuSans-48"/>
      <use x="2457.330078" xlink:href="#DejaVuSans-51"/>
      <use x="2520.953125" xlink:href="#DejaVuSans-52"/>
      <use x="2584.576172" xlink:href="#DejaVuSans-56"/>
      <use x="2648.199219" xlink:href="#DejaVuSans-54"/>
      <use x="2711.822266" xlink:href="#DejaVuSans-57"/>
      <use x="2775.445312" xlink:href="#DejaVuSans-51"/>
      <use x="2839.068359" xlink:href="#DejaVuSans-53"/>
      <use x="2902.691406" xlink:href="#DejaVuSans-48"/>
      <use x="2966.314453" xlink:href="#DejaVuSans-52"/>
     </g>
    </g>
   </g>
  </g>
 </g>
 <defs>
  <clipPath id="pc5e61a54bf">
   <rect height="792" width="792" x="0" y="0"/>
  </clipPath>
 </defs>
</svg>
